<?xml version="1.0" encoding="UTF-8"?>
<!-- This file is generated by npm run build:icons -->
<svg xmlns="http://www.w3.org/2000/svg" xmlns:xlink="http://www.w3.org/1999/xlink" width="0" height="0">
<defs>
<symbol viewBox="0 0 15 15" fill="none" id="arrow-left">
  <path     fill-rule="evenodd"
    clip-rule="evenodd"
    d="M6.85355 3.14645C7.04882 3.34171 7.04882 3.65829 6.85355 3.85355L3.70711 7H12.5C12.7761 7 13 7.22386 13 7.5C13 7.77614 12.7761 8 12.5 8H3.70711L6.85355 11.1464C7.04882 11.3417 7.04882 11.6583 6.85355 11.8536C6.65829 12.0488 6.34171 12.0488 6.14645 11.8536L2.14645 7.85355C1.95118 7.65829 1.95118 7.34171 2.14645 7.14645L6.14645 3.14645C6.34171 2.95118 6.65829 2.95118 6.85355 3.14645Z"
    fill="currentColor"
  ></path>
</symbol>
<symbol viewBox="0 0 15 15" fill="none" id="arrow-right">
  <path     fill-rule="evenodd"
    clip-rule="evenodd"
    d="M8.14645 3.14645C8.34171 2.95118 8.65829 2.95118 8.85355 3.14645L12.8536 7.14645C13.0488 7.34171 13.0488 7.65829 12.8536 7.85355L8.85355 11.8536C8.65829 12.0488 8.34171 12.0488 8.14645 11.8536C7.95118 11.6583 7.95118 11.3417 8.14645 11.1464L11.2929 8H2.5C2.22386 8 2 7.77614 2 7.5C2 7.22386 2.22386 7 2.5 7H11.2929L8.14645 3.85355C7.95118 3.65829 7.95118 3.34171 8.14645 3.14645Z"
    fill="currentColor"
  ></path>
</symbol>
<symbol viewBox="0 0 15 15" fill="none" id="arrow-top-right">
  <path     fill-rule="evenodd"
    clip-rule="evenodd"
    d="M3.64645 11.3536C3.45118 11.1583 3.45118 10.8417 3.64645 10.6465L10.2929 4L6 4C5.72386 4 5.5 3.77614 5.5 3.5C5.5 3.22386 5.72386 3 6 3L11.5 3C11.6326 3 11.7598 3.05268 11.8536 3.14645C11.9473 3.24022 12 3.36739 12 3.5L12 9.00001C12 9.27615 11.7761 9.50001 11.5 9.50001C11.2239 9.50001 11 9.27615 11 9.00001V4.70711L4.35355 11.3536C4.15829 11.5488 3.84171 11.5488 3.64645 11.3536Z"
    fill="currentColor"
  ></path>
</symbol>
<symbol viewBox="0 0 15 15" fill="none" id="avatar">
  <path     fill-rule="evenodd"
    clip-rule="evenodd"
    d="M0.877014 7.49988C0.877014 3.84219 3.84216 0.877045 7.49985 0.877045C11.1575 0.877045 14.1227 3.84219 14.1227 7.49988C14.1227 11.1575 11.1575 14.1227 7.49985 14.1227C3.84216 14.1227 0.877014 11.1575 0.877014 7.49988ZM7.49985 1.82704C4.36683 1.82704 1.82701 4.36686 1.82701 7.49988C1.82701 8.97196 2.38774 10.3131 3.30727 11.3213C4.19074 9.94119 5.73818 9.02499 7.50023 9.02499C9.26206 9.02499 10.8093 9.94097 11.6929 11.3208C12.6121 10.3127 13.1727 8.97172 13.1727 7.49988C13.1727 4.36686 10.6328 1.82704 7.49985 1.82704ZM10.9818 11.9787C10.2839 10.7795 8.9857 9.97499 7.50023 9.97499C6.01458 9.97499 4.71624 10.7797 4.01845 11.9791C4.97952 12.7272 6.18765 13.1727 7.49985 13.1727C8.81227 13.1727 10.0206 12.727 10.9818 11.9787ZM5.14999 6.50487C5.14999 5.207 6.20212 4.15487 7.49999 4.15487C8.79786 4.15487 9.84999 5.207 9.84999 6.50487C9.84999 7.80274 8.79786 8.85487 7.49999 8.85487C6.20212 8.85487 5.14999 7.80274 5.14999 6.50487ZM7.49999 5.10487C6.72679 5.10487 6.09999 5.73167 6.09999 6.50487C6.09999 7.27807 6.72679 7.90487 7.49999 7.90487C8.27319 7.90487 8.89999 7.27807 8.89999 6.50487C8.89999 5.73167 8.27319 5.10487 7.49999 5.10487Z"
    fill="currentColor"
  ></path>
</symbol>
<symbol viewBox="0 0 15 15" fill="none" id="bookmark">
  <path     fill-rule="evenodd"
    clip-rule="evenodd"
    d="M3 2.5C3 2.22386 3.22386 2 3.5 2H11.5C11.7761 2 12 2.22386 12 2.5V13.5C12 13.6818 11.9014 13.8492 11.7424 13.9373C11.5834 14.0254 11.3891 14.0203 11.235 13.924L7.5 11.5896L3.765 13.924C3.61087 14.0203 3.41659 14.0254 3.25762 13.9373C3.09864 13.8492 3 13.6818 3 13.5V2.5ZM4 3V12.5979L6.97 10.7416C7.29427 10.539 7.70573 10.539 8.03 10.7416L11 12.5979V3H4Z"
    fill="currentColor"
  ></path>
</symbol>
<symbol viewBox="0 0 15 15" fill="none" id="calendar">
  <path     fill-rule="evenodd"
    clip-rule="evenodd"
    d="M4.5 1C4.77614 1 5 1.22386 5 1.5V2H10V1.5C10 1.22386 10.2239 1 10.5 1C10.7761 1 11 1.22386 11 1.5V2H12.5C13.3284 2 14 2.67157 14 3.5V12.5C14 13.3284 13.3284 14 12.5 14H2.5C1.67157 14 1 13.3284 1 12.5V3.5C1 2.67157 1.67157 2 2.5 2H4V1.5C4 1.22386 4.22386 1 4.5 1ZM10 3V3.5C10 3.77614 10.2239 4 10.5 4C10.7761 4 11 3.77614 11 3.5V3H12.5C12.7761 3 13 3.22386 13 3.5V5H2V3.5C2 3.22386 2.22386 3 2.5 3H4V3.5C4 3.77614 4.22386 4 4.5 4C4.77614 4 5 3.77614 5 3.5V3H10ZM2 6V12.5C2 12.7761 2.22386 13 2.5 13H12.5C12.7761 13 13 12.7761 13 12.5V6H2ZM7 7.5C7 7.22386 7.22386 7 7.5 7C7.77614 7 8 7.22386 8 7.5C8 7.77614 7.77614 8 7.5 8C7.22386 8 7 7.77614 7 7.5ZM9.5 7C9.22386 7 9 7.22386 9 7.5C9 7.77614 9.22386 8 9.5 8C9.77614 8 10 7.77614 10 7.5C10 7.22386 9.77614 7 9.5 7ZM11 7.5C11 7.22386 11.2239 7 11.5 7C11.7761 7 12 7.22386 12 7.5C12 7.77614 11.7761 8 11.5 8C11.2239 8 11 7.77614 11 7.5ZM11.5 9C11.2239 9 11 9.22386 11 9.5C11 9.77614 11.2239 10 11.5 10C11.7761 10 12 9.77614 12 9.5C12 9.22386 11.7761 9 11.5 9ZM9 9.5C9 9.22386 9.22386 9 9.5 9C9.77614 9 10 9.22386 10 9.5C10 9.77614 9.77614 10 9.5 10C9.22386 10 9 9.77614 9 9.5ZM7.5 9C7.22386 9 7 9.22386 7 9.5C7 9.77614 7.22386 10 7.5 10C7.77614 10 8 9.77614 8 9.5C8 9.22386 7.77614 9 7.5 9ZM5 9.5C5 9.22386 5.22386 9 5.5 9C5.77614 9 6 9.22386 6 9.5C6 9.77614 5.77614 10 5.5 10C5.22386 10 5 9.77614 5 9.5ZM3.5 9C3.22386 9 3 9.22386 3 9.5C3 9.77614 3.22386 10 3.5 10C3.77614 10 4 9.77614 4 9.5C4 9.22386 3.77614 9 3.5 9ZM3 11.5C3 11.2239 3.22386 11 3.5 11C3.77614 11 4 11.2239 4 11.5C4 11.7761 3.77614 12 3.5 12C3.22386 12 3 11.7761 3 11.5ZM5.5 11C5.22386 11 5 11.2239 5 11.5C5 11.7761 5.22386 12 5.5 12C5.77614 12 6 11.7761 6 11.5C6 11.2239 5.77614 11 5.5 11ZM7 11.5C7 11.2239 7.22386 11 7.5 11C7.77614 11 8 11.2239 8 11.5C8 11.7761 7.77614 12 7.5 12C7.22386 12 7 11.7761 7 11.5ZM9.5 11C9.22386 11 9 11.2239 9 11.5C9 11.7761 9.22386 12 9.5 12C9.77614 12 10 11.7761 10 11.5C10 11.2239 9.77614 11 9.5 11Z"
    fill="currentColor"
  ></path>
</symbol>
<symbol viewBox="0 0 15 15" fill="none" id="camera">
  <path     fill-rule="evenodd"
    clip-rule="evenodd"
    d="M2 3C1.44772 3 1 3.44772 1 4V11C1 11.5523 1.44772 12 2 12H13C13.5523 12 14 11.5523 14 11V4C14 3.44772 13.5523 3 13 3H2ZM0 4C0 2.89543 0.895431 2 2 2H13C14.1046 2 15 2.89543 15 4V11C15 12.1046 14.1046 13 13 13H2C0.895431 13 0 12.1046 0 11V4ZM2 4.25C2 4.11193 2.11193 4 2.25 4H4.75C4.88807 4 5 4.11193 5 4.25V5.75454C5 5.89261 4.88807 6.00454 4.75 6.00454H2.25C2.11193 6.00454 2 5.89261 2 5.75454V4.25ZM12.101 7.58421C12.101 9.02073 10.9365 10.1853 9.49998 10.1853C8.06346 10.1853 6.89893 9.02073 6.89893 7.58421C6.89893 6.14769 8.06346 4.98315 9.49998 4.98315C10.9365 4.98315 12.101 6.14769 12.101 7.58421ZM13.101 7.58421C13.101 9.57302 11.4888 11.1853 9.49998 11.1853C7.51117 11.1853 5.89893 9.57302 5.89893 7.58421C5.89893 5.5954 7.51117 3.98315 9.49998 3.98315C11.4888 3.98315 13.101 5.5954 13.101 7.58421Z"
    fill="currentColor"
  ></path>
</symbol>
<symbol viewBox="0 0 15 15" fill="none" id="check-circled">
  <path     fill-rule="evenodd"
    clip-rule="evenodd"
    d="M7.49991 0.877045C3.84222 0.877045 0.877075 3.84219 0.877075 7.49988C0.877075 11.1575 3.84222 14.1227 7.49991 14.1227C11.1576 14.1227 14.1227 11.1575 14.1227 7.49988C14.1227 3.84219 11.1576 0.877045 7.49991 0.877045ZM1.82708 7.49988C1.82708 4.36686 4.36689 1.82704 7.49991 1.82704C10.6329 1.82704 13.1727 4.36686 13.1727 7.49988C13.1727 10.6329 10.6329 13.1727 7.49991 13.1727C4.36689 13.1727 1.82708 10.6329 1.82708 7.49988ZM10.1589 5.53774C10.3178 5.31191 10.2636 5.00001 10.0378 4.84109C9.81194 4.68217 9.50004 4.73642 9.34112 4.96225L6.51977 8.97154L5.35681 7.78706C5.16334 7.59002 4.84677 7.58711 4.64973 7.78058C4.45268 7.97404 4.44978 8.29061 4.64325 8.48765L6.22658 10.1003C6.33054 10.2062 6.47617 10.2604 6.62407 10.2483C6.77197 10.2363 6.90686 10.1591 6.99226 10.0377L10.1589 5.53774Z"
    fill="currentColor"
  ></path>
</symbol>
<symbol viewBox="0 0 15 15" fill="none" id="check">
  <path     fill-rule="evenodd"
    clip-rule="evenodd"
    d="M11.4669 3.72684C11.7558 3.91574 11.8369 4.30308 11.648 4.59198L7.39799 11.092C7.29783 11.2452 7.13556 11.3467 6.95402 11.3699C6.77247 11.3931 6.58989 11.3355 6.45446 11.2124L3.70446 8.71241C3.44905 8.48022 3.43023 8.08494 3.66242 7.82953C3.89461 7.57412 4.28989 7.55529 4.5453 7.78749L6.75292 9.79441L10.6018 3.90792C10.7907 3.61902 11.178 3.53795 11.4669 3.72684Z"
    fill="currentColor"
  ></path>
</symbol>
<symbol viewBox="0 0 15 15" fill="none" id="chevron-down">
  <path     fill-rule="evenodd"
    clip-rule="evenodd"
    d="M3.13523 6.15803C3.3241 5.95657 3.64052 5.94637 3.84197 6.13523L7.5 9.56464L11.158 6.13523C11.3595 5.94637 11.6759 5.95657 11.8648 6.15803C12.0536 6.35949 12.0434 6.67591 11.842 6.86477L7.84197 10.6148C7.64964 10.7951 7.35036 10.7951 7.15803 10.6148L3.15803 6.86477C2.95657 6.67591 2.94637 6.35949 3.13523 6.15803Z"
    fill="currentColor"
  ></path>
</symbol>
<symbol viewBox="0 0 15 15" fill="none" id="chevron-right">
  <path     fill-rule="evenodd"
    clip-rule="evenodd"
    d="M6.1584 3.13508C6.35985 2.94621 6.67627 2.95642 6.86514 3.15788L10.6151 7.15788C10.7954 7.3502 10.7954 7.64949 10.6151 7.84182L6.86514 11.8418C6.67627 12.0433 6.35985 12.0535 6.1584 11.8646C5.95694 11.6757 5.94673 11.3593 6.1356 11.1579L9.565 7.49985L6.1356 3.84182C5.94673 3.64036 5.95694 3.32394 6.1584 3.13508Z"
    fill="currentColor"
  ></path>
</symbol>
<symbol viewBox="0 0 15 15" fill="none" id="circle">
  <path     fill-rule="evenodd"
    clip-rule="evenodd"
    d="M0.877075 7.49991C0.877075 3.84222 3.84222 0.877075 7.49991 0.877075C11.1576 0.877075 14.1227 3.84222 14.1227 7.49991C14.1227 11.1576 11.1576 14.1227 7.49991 14.1227C3.84222 14.1227 0.877075 11.1576 0.877075 7.49991ZM7.49991 1.82708C4.36689 1.82708 1.82708 4.36689 1.82708 7.49991C1.82708 10.6329 4.36689 13.1727 7.49991 13.1727C10.6329 13.1727 13.1727 10.6329 13.1727 7.49991C13.1727 4.36689 10.6329 1.82708 7.49991 1.82708Z"
    fill="currentColor"
  ></path>
</symbol>
<symbol viewBox="0 0 15 15" fill="none" id="clock">
  <path     fill-rule="evenodd"
    clip-rule="evenodd"
    d="M7.50009 0.877014C3.84241 0.877014 0.877258 3.84216 0.877258 7.49984C0.877258 11.1575 3.8424 14.1227 7.50009 14.1227C11.1578 14.1227 14.1229 11.1575 14.1229 7.49984C14.1229 3.84216 11.1577 0.877014 7.50009 0.877014ZM1.82726 7.49984C1.82726 4.36683 4.36708 1.82701 7.50009 1.82701C10.6331 1.82701 13.1729 4.36683 13.1729 7.49984C13.1729 10.6328 10.6331 13.1727 7.50009 13.1727C4.36708 13.1727 1.82726 10.6328 1.82726 7.49984ZM8 4.50001C8 4.22387 7.77614 4.00001 7.5 4.00001C7.22386 4.00001 7 4.22387 7 4.50001V7.50001C7 7.63262 7.05268 7.7598 7.14645 7.85357L9.14645 9.85357C9.34171 10.0488 9.65829 10.0488 9.85355 9.85357C10.0488 9.65831 10.0488 9.34172 9.85355 9.14646L8 7.29291V4.50001Z"
    fill="currentColor"
  ></path>
</symbol>
<symbol viewBox="0 0 15 15" fill="none" id="cross-1">
  <path     fill-rule="evenodd"
    clip-rule="evenodd"
    d="M12.8536 2.85355C13.0488 2.65829 13.0488 2.34171 12.8536 2.14645C12.6583 1.95118 12.3417 1.95118 12.1464 2.14645L7.5 6.79289L2.85355 2.14645C2.65829 1.95118 2.34171 1.95118 2.14645 2.14645C1.95118 2.34171 1.95118 2.65829 2.14645 2.85355L6.79289 7.5L2.14645 12.1464C1.95118 12.3417 1.95118 12.6583 2.14645 12.8536C2.34171 13.0488 2.65829 13.0488 2.85355 12.8536L7.5 8.20711L12.1464 12.8536C12.3417 13.0488 12.6583 13.0488 12.8536 12.8536C13.0488 12.6583 13.0488 12.3417 12.8536 12.1464L8.20711 7.5L12.8536 2.85355Z"
    fill="currentColor"
  ></path>
</symbol>
<symbol viewBox="0 0 15 15" fill="none" id="cross-2">
  <path     fill-rule="evenodd"
    clip-rule="evenodd"
    d="M11.7816 4.03157C12.0062 3.80702 12.0062 3.44295 11.7816 3.2184C11.5571 2.99385 11.193 2.99385 10.9685 3.2184L7.50005 6.68682L4.03164 3.2184C3.80708 2.99385 3.44301 2.99385 3.21846 3.2184C2.99391 3.44295 2.99391 3.80702 3.21846 4.03157L6.68688 7.49999L3.21846 10.9684C2.99391 11.193 2.99391 11.557 3.21846 11.7816C3.44301 12.0061 3.80708 12.0061 4.03164 11.7816L7.50005 8.31316L10.9685 11.7816C11.193 12.0061 11.5571 12.0061 11.7816 11.7816C12.0062 11.557 12.0062 11.193 11.7816 10.9684L8.31322 7.49999L11.7816 4.03157Z"
    fill="currentColor"
  ></path>
</symbol>
<symbol viewBox="0 0 15 15" fill="none" id="cross-circled">
  <path     fill-rule="evenodd"
    clip-rule="evenodd"
    d="M0.877075 7.49988C0.877075 3.84219 3.84222 0.877045 7.49991 0.877045C11.1576 0.877045 14.1227 3.84219 14.1227 7.49988C14.1227 11.1575 11.1576 14.1227 7.49991 14.1227C3.84222 14.1227 0.877075 11.1575 0.877075 7.49988ZM7.49991 1.82704C4.36689 1.82704 1.82708 4.36686 1.82708 7.49988C1.82708 10.6329 4.36689 13.1727 7.49991 13.1727C10.6329 13.1727 13.1727 10.6329 13.1727 7.49988C13.1727 4.36686 10.6329 1.82704 7.49991 1.82704ZM9.85358 5.14644C10.0488 5.3417 10.0488 5.65829 9.85358 5.85355L8.20713 7.49999L9.85358 9.14644C10.0488 9.3417 10.0488 9.65829 9.85358 9.85355C9.65832 10.0488 9.34173 10.0488 9.14647 9.85355L7.50002 8.2071L5.85358 9.85355C5.65832 10.0488 5.34173 10.0488 5.14647 9.85355C4.95121 9.65829 4.95121 9.3417 5.14647 9.14644L6.79292 7.49999L5.14647 5.85355C4.95121 5.65829 4.95121 5.3417 5.14647 5.14644C5.34173 4.95118 5.65832 4.95118 5.85358 5.14644L7.50002 6.79289L9.14647 5.14644C9.34173 4.95118 9.65832 4.95118 9.85358 5.14644Z"
    fill="currentColor"
  ></path>
</symbol>
<symbol fill="none" stroke-width="0" viewBox="0 0 24 24" style="overflow: visible; color: currentcolor;" id="dark-mode"><path fill="currentColor" d="M12 16a4 4 0 0 0 0-8v8Z"></path><path fill="currentColor" fill-rule="evenodd" d="M12 2C6.477 2 2 6.477 2 12s4.477 10 10 10 10-4.477 10-10S17.523 2 12 2Zm0 2v4a4 4 0 1 0 0 8v4a8 8 0 1 0 0-16Z" clip-rule="evenodd"></path></symbol>
<symbol viewBox="0 0 15 15" fill="none" id="dashboard">
  <path     fill-rule="evenodd"
    clip-rule="evenodd"
    d="M2.8 1L2.74967 0.99997C2.52122 0.999752 2.32429 0.999564 2.14983 1.04145C1.60136 1.17312 1.17312 1.60136 1.04145 2.14983C0.999564 2.32429 0.999752 2.52122 0.99997 2.74967L1 2.8V5.2L0.99997 5.25033C0.999752 5.47878 0.999564 5.67572 1.04145 5.85017C1.17312 6.39864 1.60136 6.82688 2.14983 6.95856C2.32429 7.00044 2.52122 7.00025 2.74967 7.00003L2.8 7H5.2L5.25033 7.00003C5.47878 7.00025 5.67572 7.00044 5.85017 6.95856C6.39864 6.82688 6.82688 6.39864 6.95856 5.85017C7.00044 5.67572 7.00025 5.47878 7.00003 5.25033L7 5.2V2.8L7.00003 2.74967C7.00025 2.52122 7.00044 2.32429 6.95856 2.14983C6.82688 1.60136 6.39864 1.17312 5.85017 1.04145C5.67572 0.999564 5.47878 0.999752 5.25033 0.99997L5.2 1H2.8ZM2.38328 2.01382C2.42632 2.00348 2.49222 2 2.8 2H5.2C5.50779 2 5.57369 2.00348 5.61672 2.01382C5.79955 2.05771 5.94229 2.20045 5.98619 2.38328C5.99652 2.42632 6 2.49222 6 2.8V5.2C6 5.50779 5.99652 5.57369 5.98619 5.61672C5.94229 5.79955 5.79955 5.94229 5.61672 5.98619C5.57369 5.99652 5.50779 6 5.2 6H2.8C2.49222 6 2.42632 5.99652 2.38328 5.98619C2.20045 5.94229 2.05771 5.79955 2.01382 5.61672C2.00348 5.57369 2 5.50779 2 5.2V2.8C2 2.49222 2.00348 2.42632 2.01382 2.38328C2.05771 2.20045 2.20045 2.05771 2.38328 2.01382ZM9.8 1L9.74967 0.99997C9.52122 0.999752 9.32429 0.999564 9.14983 1.04145C8.60136 1.17312 8.17312 1.60136 8.04145 2.14983C7.99956 2.32429 7.99975 2.52122 7.99997 2.74967L8 2.8V5.2L7.99997 5.25033C7.99975 5.47878 7.99956 5.67572 8.04145 5.85017C8.17312 6.39864 8.60136 6.82688 9.14983 6.95856C9.32429 7.00044 9.52122 7.00025 9.74967 7.00003L9.8 7H12.2L12.2503 7.00003C12.4788 7.00025 12.6757 7.00044 12.8502 6.95856C13.3986 6.82688 13.8269 6.39864 13.9586 5.85017C14.0004 5.67572 14.0003 5.47878 14 5.25033L14 5.2V2.8L14 2.74967C14.0003 2.52122 14.0004 2.32429 13.9586 2.14983C13.8269 1.60136 13.3986 1.17312 12.8502 1.04145C12.6757 0.999564 12.4788 0.999752 12.2503 0.99997L12.2 1H9.8ZM9.38328 2.01382C9.42632 2.00348 9.49222 2 9.8 2H12.2C12.5078 2 12.5737 2.00348 12.6167 2.01382C12.7995 2.05771 12.9423 2.20045 12.9862 2.38328C12.9965 2.42632 13 2.49222 13 2.8V5.2C13 5.50779 12.9965 5.57369 12.9862 5.61672C12.9423 5.79955 12.7995 5.94229 12.6167 5.98619C12.5737 5.99652 12.5078 6 12.2 6H9.8C9.49222 6 9.42632 5.99652 9.38328 5.98619C9.20045 5.94229 9.05771 5.79955 9.01382 5.61672C9.00348 5.57369 9 5.50779 9 5.2V2.8C9 2.49222 9.00348 2.42632 9.01382 2.38328C9.05771 2.20045 9.20045 2.05771 9.38328 2.01382ZM2.74967 7.99997L2.8 8H5.2L5.25033 7.99997C5.47878 7.99975 5.67572 7.99956 5.85017 8.04145C6.39864 8.17312 6.82688 8.60136 6.95856 9.14983C7.00044 9.32429 7.00025 9.52122 7.00003 9.74967L7 9.8V12.2L7.00003 12.2503C7.00025 12.4788 7.00044 12.6757 6.95856 12.8502C6.82688 13.3986 6.39864 13.8269 5.85017 13.9586C5.67572 14.0004 5.47878 14.0003 5.25033 14L5.2 14H2.8L2.74967 14C2.52122 14.0003 2.32429 14.0004 2.14983 13.9586C1.60136 13.8269 1.17312 13.3986 1.04145 12.8502C0.999564 12.6757 0.999752 12.4788 0.99997 12.2503L1 12.2V9.8L0.99997 9.74967C0.999752 9.52122 0.999564 9.32429 1.04145 9.14983C1.17312 8.60136 1.60136 8.17312 2.14983 8.04145C2.32429 7.99956 2.52122 7.99975 2.74967 7.99997ZM2.8 9C2.49222 9 2.42632 9.00348 2.38328 9.01382C2.20045 9.05771 2.05771 9.20045 2.01382 9.38328C2.00348 9.42632 2 9.49222 2 9.8V12.2C2 12.5078 2.00348 12.5737 2.01382 12.6167C2.05771 12.7995 2.20045 12.9423 2.38328 12.9862C2.42632 12.9965 2.49222 13 2.8 13H5.2C5.50779 13 5.57369 12.9965 5.61672 12.9862C5.79955 12.9423 5.94229 12.7995 5.98619 12.6167C5.99652 12.5737 6 12.5078 6 12.2V9.8C6 9.49222 5.99652 9.42632 5.98619 9.38328C5.94229 9.20045 5.79955 9.05771 5.61672 9.01382C5.57369 9.00348 5.50779 9 5.2 9H2.8ZM9.8 8L9.74967 7.99997C9.52122 7.99975 9.32429 7.99956 9.14983 8.04145C8.60136 8.17312 8.17312 8.60136 8.04145 9.14983C7.99956 9.32429 7.99975 9.52122 7.99997 9.74967L8 9.8V12.2L7.99997 12.2503C7.99975 12.4788 7.99956 12.6757 8.04145 12.8502C8.17312 13.3986 8.60136 13.8269 9.14983 13.9586C9.32429 14.0004 9.52122 14.0003 9.74967 14L9.8 14H12.2L12.2503 14C12.4788 14.0003 12.6757 14.0004 12.8502 13.9586C13.3986 13.8269 13.8269 13.3986 13.9586 12.8502C14.0004 12.6757 14.0003 12.4788 14 12.2503L14 12.2V9.8L14 9.74967C14.0003 9.52122 14.0004 9.32429 13.9586 9.14983C13.8269 8.60136 13.3986 8.17312 12.8502 8.04145C12.6757 7.99956 12.4788 7.99975 12.2503 7.99997L12.2 8H9.8ZM9.38328 9.01382C9.42632 9.00348 9.49222 9 9.8 9H12.2C12.5078 9 12.5737 9.00348 12.6167 9.01382C12.7995 9.05771 12.9423 9.20045 12.9862 9.38328C12.9965 9.42632 13 9.49222 13 9.8V12.2C13 12.5078 12.9965 12.5737 12.9862 12.6167C12.9423 12.7995 12.7995 12.9423 12.6167 12.9862C12.5737 12.9965 12.5078 13 12.2 13H9.8C9.49222 13 9.42632 12.9965 9.38328 12.9862C9.20045 12.9423 9.05771 12.7995 9.01382 12.6167C9.00348 12.5737 9 12.5078 9 12.2V9.8C9 9.49222 9.00348 9.42632 9.01382 9.38328C9.05771 9.20045 9.20045 9.05771 9.38328 9.01382Z"
    fill="currentColor"
  ></path>
</symbol>
<symbol viewBox="0 0 15 15" fill="none" id="dots-horizontal">
  <path     fill-rule="evenodd"
    clip-rule="evenodd"
    d="M3.625 7.5C3.625 8.12132 3.12132 8.625 2.5 8.625C1.87868 8.625 1.375 8.12132 1.375 7.5C1.375 6.87868 1.87868 6.375 2.5 6.375C3.12132 6.375 3.625 6.87868 3.625 7.5ZM8.625 7.5C8.625 8.12132 8.12132 8.625 7.5 8.625C6.87868 8.625 6.375 8.12132 6.375 7.5C6.375 6.87868 6.87868 6.375 7.5 6.375C8.12132 6.375 8.625 6.87868 8.625 7.5ZM12.5 8.625C13.1213 8.625 13.625 8.12132 13.625 7.5C13.625 6.87868 13.1213 6.375 12.5 6.375C11.8787 6.375 11.375 6.87868 11.375 7.5C11.375 8.12132 11.8787 8.625 12.5 8.625Z"
    fill="currentColor"
  ></path>
</symbol>
<symbol viewBox="0 0 15 15" fill="none" id="download">
  <path     fill-rule="evenodd"
    clip-rule="evenodd"
    d="M7.50005 1.04999C7.74858 1.04999 7.95005 1.25146 7.95005 1.49999V8.41359L10.1819 6.18179C10.3576 6.00605 10.6425 6.00605 10.8182 6.18179C10.994 6.35753 10.994 6.64245 10.8182 6.81819L7.81825 9.81819C7.64251 9.99392 7.35759 9.99392 7.18185 9.81819L4.18185 6.81819C4.00611 6.64245 4.00611 6.35753 4.18185 6.18179C4.35759 6.00605 4.64251 6.00605 4.81825 6.18179L7.05005 8.41359V1.49999C7.05005 1.25146 7.25152 1.04999 7.50005 1.04999ZM2.5 10C2.77614 10 3 10.2239 3 10.5V12C3 12.5539 3.44565 13 3.99635 13H11.0012C11.5529 13 12 12.5528 12 12V10.5C12 10.2239 12.2239 10 12.5 10C12.7761 10 13 10.2239 13 10.5V12C13 13.1041 12.1062 14 11.0012 14H3.99635C2.89019 14 2 13.103 2 12V10.5C2 10.2239 2.22386 10 2.5 10Z"
    fill="currentColor"
  ></path>
</symbol>
<symbol viewBox="0 0 15 15" fill="none" id="envelope-closed">
  <path     fill-rule="evenodd"
    clip-rule="evenodd"
    d="M1 2C0.447715 2 0 2.44772 0 3V12C0 12.5523 0.447715 13 1 13H14C14.5523 13 15 12.5523 15 12V3C15 2.44772 14.5523 2 14 2H1ZM1 3L14 3V3.92494C13.9174 3.92486 13.8338 3.94751 13.7589 3.99505L7.5 7.96703L1.24112 3.99505C1.16621 3.94751 1.0826 3.92486 1 3.92494V3ZM1 4.90797V12H14V4.90797L7.74112 8.87995C7.59394 8.97335 7.40606 8.97335 7.25888 8.87995L1 4.90797Z"
    fill="currentColor"
  ></path>
</symbol>
<symbol viewBox="0 0 15 15" fill="none" id="exclamation-triangle">
  <path     fill-rule="evenodd"
    clip-rule="evenodd"
    d="M8.4449 0.608765C8.0183 -0.107015 6.9817 -0.107015 6.55509 0.608766L0.161178 11.3368C-0.275824 12.07 0.252503 13 1.10608 13H13.8939C14.7475 13 15.2758 12.07 14.8388 11.3368L8.4449 0.608765ZM7.4141 1.12073C7.45288 1.05566 7.54712 1.05566 7.5859 1.12073L13.9798 11.8488C14.0196 11.9154 13.9715 12 13.8939 12H1.10608C1.02849 12 0.980454 11.9154 1.02018 11.8488L7.4141 1.12073ZM6.8269 4.48611C6.81221 4.10423 7.11783 3.78663 7.5 3.78663C7.88217 3.78663 8.18778 4.10423 8.1731 4.48612L8.01921 8.48701C8.00848 8.766 7.7792 8.98664 7.5 8.98664C7.2208 8.98664 6.99151 8.766 6.98078 8.48701L6.8269 4.48611ZM8.24989 10.476C8.24989 10.8902 7.9141 11.226 7.49989 11.226C7.08567 11.226 6.74989 10.8902 6.74989 10.476C6.74989 10.0618 7.08567 9.72599 7.49989 9.72599C7.9141 9.72599 8.24989 10.0618 8.24989 10.476Z"
    fill="currentColor"
  ></path>
</symbol>
<symbol viewBox="0 0 15 15" fill="none" id="exit">
  <path     fill-rule="evenodd"
    clip-rule="evenodd"
    d="M3 1C2.44771 1 2 1.44772 2 2V13C2 13.5523 2.44772 14 3 14H10.5C10.7761 14 11 13.7761 11 13.5C11 13.2239 10.7761 13 10.5 13H3V2L10.5 2C10.7761 2 11 1.77614 11 1.5C11 1.22386 10.7761 1 10.5 1H3ZM12.6036 4.89645C12.4083 4.70118 12.0917 4.70118 11.8964 4.89645C11.7012 5.09171 11.7012 5.40829 11.8964 5.60355L13.2929 7H6.5C6.22386 7 6 7.22386 6 7.5C6 7.77614 6.22386 8 6.5 8H13.2929L11.8964 9.39645C11.7012 9.59171 11.7012 9.90829 11.8964 10.1036C12.0917 10.2988 12.4083 10.2988 12.6036 10.1036L14.8536 7.85355C15.0488 7.65829 15.0488 7.34171 14.8536 7.14645L12.6036 4.89645Z"
    fill="currentColor"
  ></path>
</symbol>
<symbol viewBox="0 0 15 15" fill="none" id="file-text">
  <path     fill-rule="evenodd"
    clip-rule="evenodd"
    d="M3 2.5C3 2.22386 3.22386 2 3.5 2H9.08579C9.21839 2 9.34557 2.05268 9.43934 2.14645L11.8536 4.56066C11.9473 4.65443 12 4.78161 12 4.91421V12.5C12 12.7761 11.7761 13 11.5 13H3.5C3.22386 13 3 12.7761 3 12.5V2.5ZM3.5 1C2.67157 1 2 1.67157 2 2.5V12.5C2 13.3284 2.67157 14 3.5 14H11.5C12.3284 14 13 13.3284 13 12.5V4.91421C13 4.51639 12.842 4.13486 12.5607 3.85355L10.1464 1.43934C9.86514 1.15804 9.48361 1 9.08579 1H3.5ZM4.5 4C4.22386 4 4 4.22386 4 4.5C4 4.77614 4.22386 5 4.5 5H7.5C7.77614 5 8 4.77614 8 4.5C8 4.22386 7.77614 4 7.5 4H4.5ZM4.5 7C4.22386 7 4 7.22386 4 7.5C4 7.77614 4.22386 8 4.5 8H10.5C10.7761 8 11 7.77614 11 7.5C11 7.22386 10.7761 7 10.5 7H4.5ZM4.5 10C4.22386 10 4 10.2239 4 10.5C4 10.7761 4.22386 11 4.5 11H10.5C10.7761 11 11 10.7761 11 10.5C11 10.2239 10.7761 10 10.5 10H4.5Z"
    fill="currentColor"
  ></path>
</symbol>
<symbol viewBox="0 0 15 15" fill="none" id="gear">
  <path     fill-rule="evenodd"
    clip-rule="evenodd"
    d="M7.07095 0.650238C6.67391 0.650238 6.32977 0.925096 6.24198 1.31231L6.0039 2.36247C5.6249 2.47269 5.26335 2.62363 4.92436 2.81013L4.01335 2.23585C3.67748 2.02413 3.23978 2.07312 2.95903 2.35386L2.35294 2.95996C2.0722 3.2407 2.0232 3.6784 2.23493 4.01427L2.80942 4.92561C2.62307 5.2645 2.47227 5.62594 2.36216 6.00481L1.31209 6.24287C0.924883 6.33065 0.650024 6.6748 0.650024 7.07183V7.92897C0.650024 8.32601 0.924883 8.67015 1.31209 8.75794L2.36228 8.99603C2.47246 9.375 2.62335 9.73652 2.80979 10.0755L2.2354 10.9867C2.02367 11.3225 2.07267 11.7602 2.35341 12.041L2.95951 12.6471C3.24025 12.9278 3.67795 12.9768 4.01382 12.7651L4.92506 12.1907C5.26384 12.377 5.62516 12.5278 6.0039 12.6379L6.24198 13.6881C6.32977 14.0753 6.67391 14.3502 7.07095 14.3502H7.92809C8.32512 14.3502 8.66927 14.0753 8.75705 13.6881L8.99505 12.6383C9.37411 12.5282 9.73573 12.3773 10.0748 12.1909L10.986 12.7653C11.3218 12.977 11.7595 12.928 12.0403 12.6473L12.6464 12.0412C12.9271 11.7604 12.9761 11.3227 12.7644 10.9869L12.1902 10.076C12.3768 9.73688 12.5278 9.37515 12.638 8.99596L13.6879 8.75794C14.0751 8.67015 14.35 8.32601 14.35 7.92897V7.07183C14.35 6.6748 14.0751 6.33065 13.6879 6.24287L12.6381 6.00488C12.528 5.62578 12.3771 5.26414 12.1906 4.92507L12.7648 4.01407C12.9766 3.6782 12.9276 3.2405 12.6468 2.95975L12.0407 2.35366C11.76 2.07292 11.3223 2.02392 10.9864 2.23565L10.0755 2.80989C9.73622 2.62328 9.37437 2.47229 8.99505 2.36209L8.75705 1.31231C8.66927 0.925096 8.32512 0.650238 7.92809 0.650238H7.07095ZM4.92053 3.81251C5.44724 3.44339 6.05665 3.18424 6.71543 3.06839L7.07095 1.50024H7.92809L8.28355 3.06816C8.94267 3.18387 9.5524 3.44302 10.0794 3.81224L11.4397 2.9547L12.0458 3.56079L11.1882 4.92117C11.5573 5.44798 11.8164 6.0575 11.9321 6.71638L13.5 7.07183V7.92897L11.932 8.28444C11.8162 8.94342 11.557 9.55301 11.1878 10.0798L12.0453 11.4402L11.4392 12.0462L10.0787 11.1886C9.55192 11.5576 8.94241 11.8166 8.28355 11.9323L7.92809 13.5002H7.07095L6.71543 11.932C6.0569 11.8162 5.44772 11.5572 4.92116 11.1883L3.56055 12.046L2.95445 11.4399L3.81213 10.0794C3.4431 9.55266 3.18403 8.94326 3.06825 8.2845L1.50002 7.92897V7.07183L3.06818 6.71632C3.18388 6.05765 3.44283 5.44833 3.81171 4.92165L2.95398 3.561L3.56008 2.95491L4.92053 3.81251ZM9.02496 7.50008C9.02496 8.34226 8.34223 9.02499 7.50005 9.02499C6.65786 9.02499 5.97513 8.34226 5.97513 7.50008C5.97513 6.65789 6.65786 5.97516 7.50005 5.97516C8.34223 5.97516 9.02496 6.65789 9.02496 7.50008ZM9.92496 7.50008C9.92496 8.83932 8.83929 9.92499 7.50005 9.92499C6.1608 9.92499 5.07513 8.83932 5.07513 7.50008C5.07513 6.16084 6.1608 5.07516 7.50005 5.07516C8.83929 5.07516 9.92496 6.16084 9.92496 7.50008Z"
    fill="currentColor"
  ></path>
</symbol>
<symbol viewBox="0 0 15 15" fill="none" id="github-logo">
  <path     fill-rule="evenodd"
    clip-rule="evenodd"
    d="M7.49933 0.25C3.49635 0.25 0.25 3.49593 0.25 7.50024C0.25 10.703 2.32715 13.4206 5.2081 14.3797C5.57084 14.446 5.70302 14.2222 5.70302 14.0299C5.70302 13.8576 5.69679 13.4019 5.69323 12.797C3.67661 13.235 3.25112 11.825 3.25112 11.825C2.92132 10.9874 2.44599 10.7644 2.44599 10.7644C1.78773 10.3149 2.49584 10.3238 2.49584 10.3238C3.22353 10.375 3.60629 11.0711 3.60629 11.0711C4.25298 12.1788 5.30335 11.8588 5.71638 11.6732C5.78225 11.205 5.96962 10.8854 6.17658 10.7043C4.56675 10.5209 2.87415 9.89918 2.87415 7.12104C2.87415 6.32925 3.15677 5.68257 3.62053 5.17563C3.54576 4.99226 3.29697 4.25521 3.69174 3.25691C3.69174 3.25691 4.30015 3.06196 5.68522 3.99973C6.26337 3.83906 6.8838 3.75895 7.50022 3.75583C8.1162 3.75895 8.73619 3.83906 9.31523 3.99973C10.6994 3.06196 11.3069 3.25691 11.3069 3.25691C11.7026 4.25521 11.4538 4.99226 11.3795 5.17563C11.8441 5.68257 12.1245 6.32925 12.1245 7.12104C12.1245 9.9063 10.4292 10.5192 8.81452 10.6985C9.07444 10.9224 9.30633 11.3648 9.30633 12.0413C9.30633 13.0102 9.29742 13.7922 9.29742 14.0299C9.29742 14.2239 9.42828 14.4496 9.79591 14.3788C12.6746 13.4179 14.75 10.7025 14.75 7.50024C14.75 3.49593 11.5036 0.25 7.49933 0.25Z"
    fill="currentColor"
  ></path>
</symbol>
<symbol role="img" viewBox="0 0 24 24" fill="currentColor" id="google-logo"><title>Google</title><path d="M12.48 10.92v3.28h7.84c-.24 1.84-.853 3.187-1.787 4.133-1.147 1.147-2.933 2.4-6.053 2.4-4.827 0-8.6-3.893-8.6-8.72s3.773-8.72 8.6-8.72c2.6 0 4.507 1.027 5.907 2.347l2.307-2.307C18.747 1.44 16.133 0 12.48 0 5.867 0 .307 5.387.307 12s5.56 12 12.173 12c3.573 0 6.267-1.173 8.373-3.36 2.16-2.16 2.84-5.213 2.84-7.667 0-.76-.053-1.467-.173-2.053H12.48z"></path></symbol>
<symbol viewBox="0 0 15 15" fill="none" id="half-2">
  <path     fill-rule="evenodd"
    clip-rule="evenodd"
    d="M7.49991 0.876892C3.84222 0.876892 0.877075 3.84204 0.877075 7.49972C0.877075 11.1574 3.84222 14.1226 7.49991 14.1226C11.1576 14.1226 14.1227 11.1574 14.1227 7.49972C14.1227 3.84204 11.1576 0.876892 7.49991 0.876892ZM7.49988 1.82689C4.36688 1.8269 1.82707 4.36672 1.82707 7.49972C1.82707 10.6327 4.36688 13.1725 7.49988 13.1726V1.82689Z"
    fill="currentColor"
  ></path>
</symbol>
<symbol viewBox="0 0 15 15" fill="none" id="laptop">
  <path     fill-rule="evenodd"
    clip-rule="evenodd"
    d="M2 4.25C2 4.11193 2.11193 4 2.25 4H12.75C12.8881 4 13 4.11193 13 4.25V11.5H2V4.25ZM2.25 3C1.55964 3 1 3.55964 1 4.25V12H0V12.5C0 12.7761 0.223858 13 0.5 13H14.5C14.7761 13 15 12.7761 15 12.5V12H14V4.25C14 3.55964 13.4404 3 12.75 3H2.25Z"
    fill="currentColor"
  ></path>
</symbol>
<symbol viewBox="0 0 15 15" fill="none" id="link-2">
  <path     fill-rule="evenodd"
    clip-rule="evenodd"
    d="M8.51194 3.00541C9.18829 2.54594 10.0435 2.53694 10.6788 2.95419C10.8231 3.04893 10.9771 3.1993 11.389 3.61119C11.8009 4.02307 11.9513 4.17714 12.046 4.32141C12.4633 4.95675 12.4543 5.81192 11.9948 6.48827C11.8899 6.64264 11.7276 6.80811 11.3006 7.23511L10.6819 7.85383C10.4867 8.04909 10.4867 8.36567 10.6819 8.56093C10.8772 8.7562 11.1938 8.7562 11.389 8.56093L12.0077 7.94221L12.0507 7.89929C12.4203 7.52976 12.6568 7.2933 12.822 7.0502C13.4972 6.05623 13.5321 4.76252 12.8819 3.77248C12.7233 3.53102 12.4922 3.30001 12.1408 2.94871L12.0961 2.90408L12.0515 2.85942C11.7002 2.508 11.4692 2.27689 11.2277 2.11832C10.2377 1.46813 8.94398 1.50299 7.95001 2.17822C7.70691 2.34336 7.47044 2.57991 7.1009 2.94955L7.058 2.99247L6.43928 3.61119C6.24401 3.80645 6.24401 4.12303 6.43928 4.31829C6.63454 4.51355 6.95112 4.51355 7.14638 4.31829L7.7651 3.69957C8.1921 3.27257 8.35757 3.11027 8.51194 3.00541ZM4.31796 7.14672C4.51322 6.95146 4.51322 6.63487 4.31796 6.43961C4.12269 6.24435 3.80611 6.24435 3.61085 6.43961L2.99213 7.05833L2.94922 7.10124C2.57957 7.47077 2.34303 7.70724 2.17788 7.95035C1.50265 8.94432 1.4678 10.238 2.11799 11.2281C2.27656 11.4695 2.50766 11.7005 2.8591 12.0518L2.90374 12.0965L2.94837 12.1411C3.29967 12.4925 3.53068 12.7237 3.77214 12.8822C4.76219 13.5324 6.05589 13.4976 7.04986 12.8223C7.29296 12.6572 7.52943 12.4206 7.89896 12.051L7.89897 12.051L7.94188 12.0081L8.5606 11.3894C8.75586 11.1941 8.75586 10.8775 8.5606 10.6823C8.36533 10.487 8.04875 10.487 7.85349 10.6823L7.23477 11.301C6.80777 11.728 6.6423 11.8903 6.48794 11.9951C5.81158 12.4546 4.95642 12.4636 4.32107 12.0464C4.17681 11.9516 4.02274 11.8012 3.61085 11.3894C3.19896 10.9775 3.0486 10.8234 2.95385 10.6791C2.53661 10.0438 2.54561 9.18863 3.00507 8.51227C3.10993 8.35791 3.27224 8.19244 3.69924 7.76544L4.31796 7.14672ZM9.62172 6.08558C9.81698 5.89032 9.81698 5.57373 9.62172 5.37847C9.42646 5.18321 9.10988 5.18321 8.91461 5.37847L5.37908 8.91401C5.18382 9.10927 5.18382 9.42585 5.37908 9.62111C5.57434 9.81637 5.89092 9.81637 6.08619 9.62111L9.62172 6.08558Z"
    fill="currentColor"
  ></path>
</symbol>
<symbol viewBox="0 0 15 15" fill="none" id="lock-closed">
  <path     fill-rule="evenodd"
    clip-rule="evenodd"
    d="M5 4.63601C5 3.76031 5.24219 3.1054 5.64323 2.67357C6.03934 2.24705 6.64582 1.9783 7.5014 1.9783C8.35745 1.9783 8.96306 2.24652 9.35823 2.67208C9.75838 3.10299 10 3.75708 10 4.63325V5.99999H5V4.63601ZM4 5.99999V4.63601C4 3.58148 4.29339 2.65754 4.91049 1.99307C5.53252 1.32329 6.42675 0.978302 7.5014 0.978302C8.57583 0.978302 9.46952 1.32233 10.091 1.99162C10.7076 2.65557 11 3.57896 11 4.63325V5.99999H12C12.5523 5.99999 13 6.44771 13 6.99999V13C13 13.5523 12.5523 14 12 14H3C2.44772 14 2 13.5523 2 13V6.99999C2 6.44771 2.44772 5.99999 3 5.99999H4ZM3 6.99999H12V13H3V6.99999Z"
    fill="currentColor"
  ></path>
</symbol>
<symbol viewBox="0 0 15 15" fill="none" id="lock-open-1">
  <path     fill-rule="evenodd"
    clip-rule="evenodd"
    d="M7.4986 0C6.3257 0 5.36107 0.38943 4.73753 1.19361C4.23745 1.83856 4 2.68242 4 3.63325H5C5 2.84313 5.19691 2.23312 5.5278 1.80636C5.91615 1.30552 6.55152 1 7.4986 1C8.35683 1 8.96336 1.26502 9.35846 1.68623C9.75793 2.11211 10 2.76044 10 3.63601V6H3C2.44772 6 2 6.44772 2 7V13C2 13.5523 2.44772 14 3 14H12C12.5523 14 13 13.5523 13 13V7C13 6.44771 12.5523 6 12 6H11V3.63601C11 2.58135 10.7065 1.66167 10.0878 1.0021C9.46477 0.337871 8.57061 0 7.4986 0ZM3 7H12V13H3V7Z"
    fill="currentColor"
  ></path>
</symbol>
<symbol viewBox="0 0 15 15" fill="none" id="magic-wand">
  <path     fill-rule="evenodd"
    clip-rule="evenodd"
    d="M13.9 0.499976C13.9 0.279062 13.7209 0.0999756 13.5 0.0999756C13.2791 0.0999756 13.1 0.279062 13.1 0.499976V1.09998H12.5C12.2791 1.09998 12.1 1.27906 12.1 1.49998C12.1 1.72089 12.2791 1.89998 12.5 1.89998H13.1V2.49998C13.1 2.72089 13.2791 2.89998 13.5 2.89998C13.7209 2.89998 13.9 2.72089 13.9 2.49998V1.89998H14.5C14.7209 1.89998 14.9 1.72089 14.9 1.49998C14.9 1.27906 14.7209 1.09998 14.5 1.09998H13.9V0.499976ZM11.8536 3.14642C12.0488 3.34168 12.0488 3.65826 11.8536 3.85353L10.8536 4.85353C10.6583 5.04879 10.3417 5.04879 10.1465 4.85353C9.9512 4.65827 9.9512 4.34169 10.1465 4.14642L11.1464 3.14643C11.3417 2.95116 11.6583 2.95116 11.8536 3.14642ZM9.85357 5.14642C10.0488 5.34168 10.0488 5.65827 9.85357 5.85353L2.85355 12.8535C2.65829 13.0488 2.34171 13.0488 2.14645 12.8535C1.95118 12.6583 1.95118 12.3417 2.14645 12.1464L9.14646 5.14642C9.34172 4.95116 9.65831 4.95116 9.85357 5.14642ZM13.5 5.09998C13.7209 5.09998 13.9 5.27906 13.9 5.49998V6.09998H14.5C14.7209 6.09998 14.9 6.27906 14.9 6.49998C14.9 6.72089 14.7209 6.89998 14.5 6.89998H13.9V7.49998C13.9 7.72089 13.7209 7.89998 13.5 7.89998C13.2791 7.89998 13.1 7.72089 13.1 7.49998V6.89998H12.5C12.2791 6.89998 12.1 6.72089 12.1 6.49998C12.1 6.27906 12.2791 6.09998 12.5 6.09998H13.1V5.49998C13.1 5.27906 13.2791 5.09998 13.5 5.09998ZM8.90002 0.499976C8.90002 0.279062 8.72093 0.0999756 8.50002 0.0999756C8.2791 0.0999756 8.10002 0.279062 8.10002 0.499976V1.09998H7.50002C7.2791 1.09998 7.10002 1.27906 7.10002 1.49998C7.10002 1.72089 7.2791 1.89998 7.50002 1.89998H8.10002V2.49998C8.10002 2.72089 8.2791 2.89998 8.50002 2.89998C8.72093 2.89998 8.90002 2.72089 8.90002 2.49998V1.89998H9.50002C9.72093 1.89998 9.90002 1.72089 9.90002 1.49998C9.90002 1.27906 9.72093 1.09998 9.50002 1.09998H8.90002V0.499976Z"
    fill="currentColor"
  ></path>
</symbol>
<symbol viewBox="0 0 15 15" fill="none" id="magnifying-glass">
  <path     fill-rule="evenodd"
    clip-rule="evenodd"
    d="M10 6.5C10 8.433 8.433 10 6.5 10C4.567 10 3 8.433 3 6.5C3 4.567 4.567 3 6.5 3C8.433 3 10 4.567 10 6.5ZM9.30884 10.0159C8.53901 10.6318 7.56251 11 6.5 11C4.01472 11 2 8.98528 2 6.5C2 4.01472 4.01472 2 6.5 2C8.98528 2 11 4.01472 11 6.5C11 7.56251 10.6318 8.53901 10.0159 9.30884L12.8536 12.1464C13.0488 12.3417 13.0488 12.6583 12.8536 12.8536C12.6583 13.0488 12.3417 13.0488 12.1464 12.8536L9.30884 10.0159Z"
    fill="currentColor"
  ></path>
</symbol>
<symbol fill="none" stroke-width="2" class="icon icon-tabler icon-tabler-menu" viewBox="0 0 24 24" stroke="currentColor" stroke-linecap="round" stroke-linejoin="round" style="overflow: visible; color: currentcolor;" id="menu"><path stroke="none" d="M0 0h24v24H0z" fill="none"></path><path d="M4 8l16 0"></path><path d="M4 16l16 0"></path></symbol>
<symbol viewBox="0 0 15 15" fill="none" id="minus-circled">
  <path     fill-rule="evenodd"
    clip-rule="evenodd"
    d="M7.49991 0.876892C3.84222 0.876892 0.877075 3.84204 0.877075 7.49972C0.877075 11.1574 3.84222 14.1226 7.49991 14.1226C11.1576 14.1226 14.1227 11.1574 14.1227 7.49972C14.1227 3.84204 11.1576 0.876892 7.49991 0.876892ZM1.82707 7.49972C1.82707 4.36671 4.36689 1.82689 7.49991 1.82689C10.6329 1.82689 13.1727 4.36671 13.1727 7.49972C13.1727 10.6327 10.6329 13.1726 7.49991 13.1726C4.36689 13.1726 1.82707 10.6327 1.82707 7.49972ZM4.50003 7C4.22389 7 4.00003 7.22386 4.00003 7.5C4.00003 7.77614 4.22389 8 4.50003 8H10.5C10.7762 8 11 7.77614 11 7.5C11 7.22386 10.7762 7 10.5 7H4.50003Z"
    fill="currentColor"
  ></path>
</symbol>
<symbol viewBox="0 0 15 15" fill="none" id="mix">
  <path     fill-rule="evenodd"
    clip-rule="evenodd"
    d="M2.14921 3.99996C2.14921 2.97778 2.97784 2.14915 4.00002 2.14915C5.02219 2.14915 5.85083 2.97778 5.85083 3.99996C5.85083 5.02213 5.02219 5.85077 4.00002 5.85077C2.97784 5.85077 2.14921 5.02213 2.14921 3.99996ZM4.00002 1.24915C2.48079 1.24915 1.24921 2.48073 1.24921 3.99996C1.24921 5.51919 2.48079 6.75077 4.00002 6.75077C5.51925 6.75077 6.75083 5.51919 6.75083 3.99996C6.75083 2.48073 5.51925 1.24915 4.00002 1.24915ZM5.82034 11.0001L2.49998 12.8369V9.16331L5.82034 11.0001ZM2.63883 8.21159C2.17228 7.9535 1.59998 8.29093 1.59998 8.82411V13.1761C1.59998 13.7093 2.17228 14.0467 2.63883 13.7886L6.57235 11.6126C7.05389 11.3462 7.05389 10.654 6.57235 10.3876L2.63883 8.21159ZM8.30001 9.00003C8.30001 8.61343 8.61341 8.30003 9.00001 8.30003H13C13.3866 8.30003 13.7 8.61343 13.7 9.00003V13C13.7 13.3866 13.3866 13.7 13 13.7H9.00001C8.61341 13.7 8.30001 13.3866 8.30001 13V9.00003ZM9.20001 9.20003V12.8H12.8V9.20003H9.20001ZM13.4432 2.19311C13.6189 2.01737 13.6189 1.73245 13.4432 1.55671C13.2675 1.38098 12.9826 1.38098 12.8068 1.55671L11 3.36353L9.19321 1.55674C9.01748 1.381 8.73255 1.381 8.55682 1.55674C8.38108 1.73247 8.38108 2.0174 8.55682 2.19313L10.3636 3.99992L8.55682 5.80671C8.38108 5.98245 8.38108 6.26737 8.55682 6.44311C8.73255 6.61885 9.01748 6.61885 9.19321 6.44311L11 4.63632L12.8068 6.44314C12.9826 6.61887 13.2675 6.61887 13.4432 6.44314C13.6189 6.2674 13.6189 5.98247 13.4432 5.80674L11.6364 3.99992L13.4432 2.19311Z"
    fill="currentColor"
  ></path>
</symbol>
<symbol viewBox="0 0 15 15" fill="none" id="mixer-vertical">
  <path     fill-rule="evenodd"
    clip-rule="evenodd"
    d="M5 1.5C5 1.22386 4.77614 1 4.5 1C4.22386 1 4 1.22386 4 1.5L4 7C4 7.01671 4.00082 7.03323 4.00242 7.04952C2.86009 7.28022 2 8.28967 2 9.5C2 10.7103 2.86009 11.7198 4.00242 11.9505C4.00082 11.9668 4 11.9833 4 12V13.5C4 13.7761 4.22386 14 4.5 14C4.77614 14 5 13.7761 5 13.5V12C5 11.9833 4.99918 11.9668 4.99758 11.9505C6.1399 11.7198 7 10.7103 7 9.5C7 8.28967 6.1399 7.28022 4.99758 7.04952C4.99918 7.03323 5 7.01671 5 7L5 1.5ZM11 1.5C11 1.22386 10.7761 1 10.5 1C10.2239 1 10 1.22386 10 1.5V3C10 3.01671 10.0008 3.03323 10.0024 3.04952C8.8601 3.28022 8 4.28967 8 5.5C8 6.71033 8.8601 7.71978 10.0024 7.95048C10.0008 7.96677 10 7.98329 10 8V13.5C10 13.7761 10.2239 14 10.5 14C10.7761 14 11 13.7761 11 13.5V8C11 7.98329 10.9992 7.96677 10.9976 7.95048C12.1399 7.71978 13 6.71033 13 5.5C13 4.28967 12.1399 3.28022 10.9976 3.04952C10.9992 3.03323 11 3.01671 11 3V1.5ZM4.5 8C3.67157 8 3 8.67157 3 9.5C3 10.3284 3.67157 11 4.5 11C5.32843 11 6 10.3284 6 9.5C6 8.67157 5.32843 8 4.5 8ZM9 5.5C9 4.67157 9.67157 4 10.5 4C11.3284 4 12 4.67157 12 5.5C12 6.32843 11.3284 7 10.5 7C9.67157 7 9 6.32843 9 5.5Z"
    fill="currentColor"
  ></path>
</symbol>
<symbol viewBox="0 0 15 15" fill="none" id="moon">
  <path     fill-rule="evenodd"
    clip-rule="evenodd"
    d="M2.89998 0.499976C2.89998 0.279062 2.72089 0.0999756 2.49998 0.0999756C2.27906 0.0999756 2.09998 0.279062 2.09998 0.499976V1.09998H1.49998C1.27906 1.09998 1.09998 1.27906 1.09998 1.49998C1.09998 1.72089 1.27906 1.89998 1.49998 1.89998H2.09998V2.49998C2.09998 2.72089 2.27906 2.89998 2.49998 2.89998C2.72089 2.89998 2.89998 2.72089 2.89998 2.49998V1.89998H3.49998C3.72089 1.89998 3.89998 1.72089 3.89998 1.49998C3.89998 1.27906 3.72089 1.09998 3.49998 1.09998H2.89998V0.499976ZM5.89998 3.49998C5.89998 3.27906 5.72089 3.09998 5.49998 3.09998C5.27906 3.09998 5.09998 3.27906 5.09998 3.49998V4.09998H4.49998C4.27906 4.09998 4.09998 4.27906 4.09998 4.49998C4.09998 4.72089 4.27906 4.89998 4.49998 4.89998H5.09998V5.49998C5.09998 5.72089 5.27906 5.89998 5.49998 5.89998C5.72089 5.89998 5.89998 5.72089 5.89998 5.49998V4.89998H6.49998C6.72089 4.89998 6.89998 4.72089 6.89998 4.49998C6.89998 4.27906 6.72089 4.09998 6.49998 4.09998H5.89998V3.49998ZM1.89998 6.49998C1.89998 6.27906 1.72089 6.09998 1.49998 6.09998C1.27906 6.09998 1.09998 6.27906 1.09998 6.49998V7.09998H0.499976C0.279062 7.09998 0.0999756 7.27906 0.0999756 7.49998C0.0999756 7.72089 0.279062 7.89998 0.499976 7.89998H1.09998V8.49998C1.09998 8.72089 1.27906 8.89997 1.49998 8.89997C1.72089 8.89997 1.89998 8.72089 1.89998 8.49998V7.89998H2.49998C2.72089 7.89998 2.89998 7.72089 2.89998 7.49998C2.89998 7.27906 2.72089 7.09998 2.49998 7.09998H1.89998V6.49998ZM8.54406 0.98184L8.24618 0.941586C8.03275 0.917676 7.90692 1.1655 8.02936 1.34194C8.17013 1.54479 8.29981 1.75592 8.41754 1.97445C8.91878 2.90485 9.20322 3.96932 9.20322 5.10022C9.20322 8.37201 6.82247 11.0878 3.69887 11.6097C3.45736 11.65 3.20988 11.6772 2.96008 11.6906C2.74563 11.702 2.62729 11.9535 2.77721 12.1072C2.84551 12.1773 2.91535 12.2458 2.98667 12.3128L3.05883 12.3795L3.31883 12.6045L3.50684 12.7532L3.62796 12.8433L3.81491 12.9742L3.99079 13.089C4.11175 13.1651 4.23536 13.2375 4.36157 13.3059L4.62496 13.4412L4.88553 13.5607L5.18837 13.6828L5.43169 13.7686C5.56564 13.8128 5.70149 13.8529 5.83857 13.8885C5.94262 13.9155 6.04767 13.9401 6.15405 13.9622C6.27993 13.9883 6.40713 14.0109 6.53544 14.0298L6.85241 14.0685L7.11934 14.0892C7.24637 14.0965 7.37436 14.1002 7.50322 14.1002C11.1483 14.1002 14.1032 11.1453 14.1032 7.50023C14.1032 7.25044 14.0893 7.00389 14.0623 6.76131L14.0255 6.48407C13.991 6.26083 13.9453 6.04129 13.8891 5.82642C13.8213 5.56709 13.7382 5.31398 13.6409 5.06881L13.5279 4.80132L13.4507 4.63542L13.3766 4.48666C13.2178 4.17773 13.0353 3.88295 12.8312 3.60423L12.6782 3.40352L12.4793 3.16432L12.3157 2.98361L12.1961 2.85951L12.0355 2.70246L11.8134 2.50184L11.4925 2.24191L11.2483 2.06498L10.9562 1.87446L10.6346 1.68894L10.3073 1.52378L10.1938 1.47176L9.95488 1.3706L9.67791 1.2669L9.42566 1.1846L9.10075 1.09489L8.83599 1.03486L8.54406 0.98184ZM10.4032 5.30023C10.4032 4.27588 10.2002 3.29829 9.83244 2.40604C11.7623 3.28995 13.1032 5.23862 13.1032 7.50023C13.1032 10.593 10.596 13.1002 7.50322 13.1002C6.63646 13.1002 5.81597 12.9036 5.08355 12.5522C6.5419 12.0941 7.81081 11.2082 8.74322 10.0416C8.87963 10.2284 9.10028 10.3497 9.34928 10.3497C9.76349 10.3497 10.0993 10.0139 10.0993 9.59971C10.0993 9.24256 9.84965 8.94373 9.51535 8.86816C9.57741 8.75165 9.63653 8.63334 9.6926 8.51332C9.88358 8.63163 10.1088 8.69993 10.35 8.69993C11.0403 8.69993 11.6 8.14028 11.6 7.44993C11.6 6.75976 11.0406 6.20024 10.3505 6.19993C10.3853 5.90487 10.4032 5.60464 10.4032 5.30023Z"
    fill="currentColor"
  ></path>
</symbol>
<symbol viewBox="0 0 15 15" fill="none" id="pause">
  <path     fill-rule="evenodd"
    clip-rule="evenodd"
    d="M6.04995 2.74998C6.04995 2.44623 5.80371 2.19998 5.49995 2.19998C5.19619 2.19998 4.94995 2.44623 4.94995 2.74998V12.25C4.94995 12.5537 5.19619 12.8 5.49995 12.8C5.80371 12.8 6.04995 12.5537 6.04995 12.25V2.74998ZM10.05 2.74998C10.05 2.44623 9.80371 2.19998 9.49995 2.19998C9.19619 2.19998 8.94995 2.44623 8.94995 2.74998V12.25C8.94995 12.5537 9.19619 12.8 9.49995 12.8C9.80371 12.8 10.05 12.5537 10.05 12.25V2.74998Z"
    fill="currentColor"
  ></path>
</symbol>
<symbol viewBox="0 0 15 15" fill="none" id="pencil-1">
  <path     fill-rule="evenodd"
    clip-rule="evenodd"
    d="M11.8536 1.14645C11.6583 0.951184 11.3417 0.951184 11.1465 1.14645L3.71455 8.57836C3.62459 8.66832 3.55263 8.77461 3.50251 8.89155L2.04044 12.303C1.9599 12.491 2.00189 12.709 2.14646 12.8536C2.29103 12.9981 2.50905 13.0401 2.69697 12.9596L6.10847 11.4975C6.2254 11.4474 6.3317 11.3754 6.42166 11.2855L13.8536 3.85355C14.0488 3.65829 14.0488 3.34171 13.8536 3.14645L11.8536 1.14645ZM4.42166 9.28547L11.5 2.20711L12.7929 3.5L5.71455 10.5784L4.21924 11.2192L3.78081 10.7808L4.42166 9.28547Z"
    fill="currentColor"
  ></path>
</symbol>
<symbol viewBox="0 0 15 15" fill="none" id="pencil-2">
  <path     fill-rule="evenodd"
    clip-rule="evenodd"
    d="M12.1464 1.14645C12.3417 0.951184 12.6583 0.951184 12.8535 1.14645L14.8535 3.14645C15.0488 3.34171 15.0488 3.65829 14.8535 3.85355L10.9109 7.79618C10.8349 7.87218 10.7471 7.93543 10.651 7.9835L6.72359 9.94721C6.53109 10.0435 6.29861 10.0057 6.14643 9.85355C5.99425 9.70137 5.95652 9.46889 6.05277 9.27639L8.01648 5.34897C8.06455 5.25283 8.1278 5.16507 8.2038 5.08907L12.1464 1.14645ZM12.5 2.20711L8.91091 5.79618L7.87266 7.87267L8.12731 8.12732L10.2038 7.08907L13.7929 3.5L12.5 2.20711ZM9.99998 2L8.99998 3H4.9C4.47171 3 4.18056 3.00039 3.95552 3.01877C3.73631 3.03668 3.62421 3.06915 3.54601 3.10899C3.35785 3.20487 3.20487 3.35785 3.10899 3.54601C3.06915 3.62421 3.03669 3.73631 3.01878 3.95552C3.00039 4.18056 3 4.47171 3 4.9V11.1C3 11.5283 3.00039 11.8194 3.01878 12.0445C3.03669 12.2637 3.06915 12.3758 3.10899 12.454C3.20487 12.6422 3.35785 12.7951 3.54601 12.891C3.62421 12.9309 3.73631 12.9633 3.95552 12.9812C4.18056 12.9996 4.47171 13 4.9 13H11.1C11.5283 13 11.8194 12.9996 12.0445 12.9812C12.2637 12.9633 12.3758 12.9309 12.454 12.891C12.6422 12.7951 12.7951 12.6422 12.891 12.454C12.9309 12.3758 12.9633 12.2637 12.9812 12.0445C12.9996 11.8194 13 11.5283 13 11.1V6.99998L14 5.99998V11.1V11.1207C14 11.5231 14 11.8553 13.9779 12.1259C13.9549 12.407 13.9057 12.6653 13.782 12.908C13.5903 13.2843 13.2843 13.5903 12.908 13.782C12.6653 13.9057 12.407 13.9549 12.1259 13.9779C11.8553 14 11.5231 14 11.1207 14H11.1H4.9H4.87934C4.47686 14 4.14468 14 3.87409 13.9779C3.59304 13.9549 3.33469 13.9057 3.09202 13.782C2.7157 13.5903 2.40973 13.2843 2.21799 12.908C2.09434 12.6653 2.04506 12.407 2.0221 12.1259C1.99999 11.8553 1.99999 11.5231 2 11.1207V11.1206V11.1V4.9V4.87935V4.87932V4.87931C1.99999 4.47685 1.99999 4.14468 2.0221 3.87409C2.04506 3.59304 2.09434 3.33469 2.21799 3.09202C2.40973 2.71569 2.7157 2.40973 3.09202 2.21799C3.33469 2.09434 3.59304 2.04506 3.87409 2.0221C4.14468 1.99999 4.47685 1.99999 4.87932 2H4.87935H4.9H9.99998Z"
    fill="currentColor"
  ></path>
</symbol>
<symbol viewBox="0 0 15 15" fill="none" id="plus-circled">
  <path     fill-rule="evenodd"
    clip-rule="evenodd"
    d="M7.49991 0.876892C3.84222 0.876892 0.877075 3.84204 0.877075 7.49972C0.877075 11.1574 3.84222 14.1226 7.49991 14.1226C11.1576 14.1226 14.1227 11.1574 14.1227 7.49972C14.1227 3.84204 11.1576 0.876892 7.49991 0.876892ZM1.82707 7.49972C1.82707 4.36671 4.36689 1.82689 7.49991 1.82689C10.6329 1.82689 13.1727 4.36671 13.1727 7.49972C13.1727 10.6327 10.6329 13.1726 7.49991 13.1726C4.36689 13.1726 1.82707 10.6327 1.82707 7.49972ZM7.50003 4C7.77617 4 8.00003 4.22386 8.00003 4.5V7H10.5C10.7762 7 11 7.22386 11 7.5C11 7.77614 10.7762 8 10.5 8H8.00003V10.5C8.00003 10.7761 7.77617 11 7.50003 11C7.22389 11 7.00003 10.7761 7.00003 10.5V8H4.50003C4.22389 8 4.00003 7.77614 4.00003 7.5C4.00003 7.22386 4.22389 7 4.50003 7H7.00003V4.5C7.00003 4.22386 7.22389 4 7.50003 4Z"
    fill="currentColor"
  ></path>
</symbol>
<symbol viewBox="0 0 15 15" fill="none" id="plus">
  <path     fill-rule="evenodd"
    clip-rule="evenodd"
    d="M8 2.75C8 2.47386 7.77614 2.25 7.5 2.25C7.22386 2.25 7 2.47386 7 2.75V7H2.75C2.47386 7 2.25 7.22386 2.25 7.5C2.25 7.77614 2.47386 8 2.75 8H7V12.25C7 12.5261 7.22386 12.75 7.5 12.75C7.77614 12.75 8 12.5261 8 12.25V8H12.25C12.5261 8 12.75 7.77614 12.75 7.5C12.75 7.22386 12.5261 7 12.25 7H8V2.75Z"
    fill="currentColor"
  ></path>
</symbol>
<symbol viewBox="0 0 15 15" fill="none" id="question-mark-circled">
  <path     fill-rule="evenodd"
    clip-rule="evenodd"
    d="M0.877075 7.49972C0.877075 3.84204 3.84222 0.876892 7.49991 0.876892C11.1576 0.876892 14.1227 3.84204 14.1227 7.49972C14.1227 11.1574 11.1576 14.1226 7.49991 14.1226C3.84222 14.1226 0.877075 11.1574 0.877075 7.49972ZM7.49991 1.82689C4.36689 1.82689 1.82708 4.36671 1.82708 7.49972C1.82708 10.6327 4.36689 13.1726 7.49991 13.1726C10.6329 13.1726 13.1727 10.6327 13.1727 7.49972C13.1727 4.36671 10.6329 1.82689 7.49991 1.82689ZM8.24993 10.5C8.24993 10.9142 7.91414 11.25 7.49993 11.25C7.08571 11.25 6.74993 10.9142 6.74993 10.5C6.74993 10.0858 7.08571 9.75 7.49993 9.75C7.91414 9.75 8.24993 10.0858 8.24993 10.5ZM6.05003 6.25C6.05003 5.57211 6.63511 4.925 7.50003 4.925C8.36496 4.925 8.95003 5.57211 8.95003 6.25C8.95003 6.74118 8.68002 6.99212 8.21447 7.27494C8.16251 7.30651 8.10258 7.34131 8.03847 7.37854L8.03841 7.37858C7.85521 7.48497 7.63788 7.61119 7.47449 7.73849C7.23214 7.92732 6.95003 8.23198 6.95003 8.7C6.95004 9.00376 7.19628 9.25 7.50004 9.25C7.8024 9.25 8.04778 9.00601 8.05002 8.70417L8.05056 8.7033C8.05924 8.6896 8.08493 8.65735 8.15058 8.6062C8.25207 8.52712 8.36508 8.46163 8.51567 8.37436L8.51571 8.37433C8.59422 8.32883 8.68296 8.27741 8.78559 8.21506C9.32004 7.89038 10.05 7.35382 10.05 6.25C10.05 4.92789 8.93511 3.825 7.50003 3.825C6.06496 3.825 4.95003 4.92789 4.95003 6.25C4.95003 6.55376 5.19628 6.8 5.50003 6.8C5.80379 6.8 6.05003 6.55376 6.05003 6.25Z"
    fill="currentColor"
  ></path>
</symbol>
<symbol viewBox="0 0 15 15" fill="none" id="reset">
  <path     fill-rule="evenodd"
    clip-rule="evenodd"
    d="M4.85355 2.14645C5.04882 2.34171 5.04882 2.65829 4.85355 2.85355L3.70711 4H9C11.4853 4 13.5 6.01472 13.5 8.5C13.5 10.9853 11.4853 13 9 13H5C4.72386 13 4.5 12.7761 4.5 12.5C4.5 12.2239 4.72386 12 5 12H9C10.933 12 12.5 10.433 12.5 8.5C12.5 6.567 10.933 5 9 5H3.70711L4.85355 6.14645C5.04882 6.34171 5.04882 6.65829 4.85355 6.85355C4.65829 7.04882 4.34171 7.04882 4.14645 6.85355L2.14645 4.85355C1.95118 4.65829 1.95118 4.34171 2.14645 4.14645L4.14645 2.14645C4.34171 1.95118 4.65829 1.95118 4.85355 2.14645Z"
    fill="currentColor"
  ></path>
</symbol>
<symbol fill="none" stroke-width="2" stroke="currentColor" stroke-linecap="round" stroke-linejoin="round" viewBox="0 0 24 24" style="overflow: visible; color: currentcolor;" id="search"><path d="M11 3A8 8 0 1 0 11 19 8 8 0 1 0 11 3z"></path><path d="M21 21 16.65 16.65"></path></symbol>
<symbol fill="currentColor" stroke-width="0" viewBox="0 0 512 512" style="overflow: visible; color: currentcolor;" id="settings"><path fill="none" stroke="currentColor" stroke-linecap="round" stroke-linejoin="round" stroke-width="32" d="M262.29 192.31a64 64 0 1 0 57.4 57.4 64.13 64.13 0 0 0-57.4-57.4ZM416.39 256a154.34 154.34 0 0 1-1.53 20.79l45.21 35.46a10.81 10.81 0 0 1 2.45 13.75l-42.77 74a10.81 10.81 0 0 1-13.14 4.59l-44.9-18.08a16.11 16.11 0 0 0-15.17 1.75A164.48 164.48 0 0 1 325 400.8a15.94 15.94 0 0 0-8.82 12.14l-6.73 47.89a11.08 11.08 0 0 1-10.68 9.17h-85.54a11.11 11.11 0 0 1-10.69-8.87l-6.72-47.82a16.07 16.07 0 0 0-9-12.22 155.3 155.3 0 0 1-21.46-12.57 16 16 0 0 0-15.11-1.71l-44.89 18.07a10.81 10.81 0 0 1-13.14-4.58l-42.77-74a10.8 10.8 0 0 1 2.45-13.75l38.21-30a16.05 16.05 0 0 0 6-14.08c-.36-4.17-.58-8.33-.58-12.5s.21-8.27.58-12.35a16 16 0 0 0-6.07-13.94l-38.19-30A10.81 10.81 0 0 1 49.48 186l42.77-74a10.81 10.81 0 0 1 13.14-4.59l44.9 18.08a16.11 16.11 0 0 0 15.17-1.75A164.48 164.48 0 0 1 187 111.2a15.94 15.94 0 0 0 8.82-12.14l6.73-47.89A11.08 11.08 0 0 1 213.23 42h85.54a11.11 11.11 0 0 1 10.69 8.87l6.72 47.82a16.07 16.07 0 0 0 9 12.22 155.3 155.3 0 0 1 21.46 12.57 16 16 0 0 0 15.11 1.71l44.89-18.07a10.81 10.81 0 0 1 13.14 4.58l42.77 74a10.8 10.8 0 0 1-2.45 13.75l-38.21 30a16.05 16.05 0 0 0-6.05 14.08c.33 4.14.55 8.3.55 12.47Z"></path></symbol>
<symbol viewBox="0 0 15 15" fill="none" id="shadow-inner">
  <path     opacity=".05"
    fill-rule="evenodd"
    clip-rule="evenodd"
    d="M12.1619 3.85182C8.35817 4.88918 4.88936 8.358 3.85199 12.1617L3.3696 12.0301C4.45356 8.05564 8.05581 4.45339 12.0303 3.36943L12.1619 3.85182Z"
    fill="currentColor"
  ></path>
  <path     opacity=".1"
    fill-rule="evenodd"
    clip-rule="evenodd"
    d="M11.8807 3.42707C8.03441 4.50542 4.50561 8.03422 3.42726 11.8805L2.94582 11.7456C4.07129 7.73121 7.7314 4.0711 11.7458 2.94563L11.8807 3.42707Z"
    fill="currentColor"
  ></path>
  <path     opacity=".15"
    fill-rule="evenodd"
    clip-rule="evenodd"
    d="M11.5201 3.02556C7.69092 4.16199 4.16779 7.68323 3.02805 11.512L2.54883 11.3694C3.73676 7.37869 7.38659 3.73076 11.3778 2.54623L11.5201 3.02556Z"
    fill="currentColor"
  ></path>
  <path     opacity=".2"
    fill-rule="evenodd"
    clip-rule="evenodd"
    d="M11.0468 2.66169C7.31117 3.87664 3.87918 7.3079 2.66298 11.0434L2.18754 10.8886C3.45324 7.00109 7.00445 3.45062 10.8921 2.18621L11.0468 2.66169Z"
    fill="currentColor"
  ></path>
  <path     opacity=".25"
    fill-rule="evenodd"
    clip-rule="evenodd"
    d="M10.5201 2.32365C6.92091 3.61447 3.62391 6.90876 2.32845 10.5073L1.858 10.338C3.20398 6.59909 6.61155 3.19424 10.3513 1.85301L10.5201 2.32365Z"
    fill="currentColor"
  ></path>
  <path     opacity=".3"
    fill-rule="evenodd"
    clip-rule="evenodd"
    d="M9.90222 2.03122C6.50003 3.39465 3.39968 6.49367 2.03399 9.89551L1.56998 9.70924C2.98651 6.18076 6.18728 2.98133 9.71622 1.5671L9.90222 2.03122Z"
    fill="currentColor"
  ></path>
  <path     opacity=".35"
    fill-rule="evenodd"
    clip-rule="evenodd"
    d="M9.20727 1.78873C6.06136 3.20349 3.21103 6.05203 1.79331 9.19738L1.33747 8.99192C2.80536 5.73528 5.74485 2.7976 9.0022 1.33272L9.20727 1.78873Z"
    fill="currentColor"
  ></path>
  <path     opacity=".4"
    fill-rule="evenodd"
    clip-rule="evenodd"
    d="M8.40713 1.62085C5.59323 3.05117 3.05794 5.58509 1.62544 8.39847L1.17987 8.1716C2.66036 5.26397 5.27232 2.6534 8.18057 1.17513L8.40713 1.62085Z"
    fill="currentColor"
  ></path>
  <path     opacity=".45"
    fill-rule="evenodd"
    clip-rule="evenodd"
    d="M7.46207 1.56747C5.08689 2.94695 2.95362 5.07912 1.57249 7.45379L1.14028 7.20241C2.56503 4.75273 4.7607 2.55818 7.21096 1.1351L7.46207 1.56747Z"
    fill="currentColor"
  ></path>
  <path     opacity=".5"
    fill-rule="evenodd"
    clip-rule="evenodd"
    d="M6.30407 1.70487C4.51964 2.91063 2.90983 4.52061 1.7043 6.30513L1.28998 6.02524C2.5313 4.18773 4.18673 2.53214 6.02413 1.29059L6.30407 1.70487Z"
    fill="currentColor"
  ></path>
  <path     fill-rule="evenodd"
    clip-rule="evenodd"
    d="M0.877075 7.49988C0.877075 3.84219 3.84222 0.877045 7.49991 0.877045C11.1576 0.877045 14.1227 3.84219 14.1227 7.49988C14.1227 11.1575 11.1576 14.1227 7.49991 14.1227C3.84222 14.1227 0.877075 11.1575 0.877075 7.49988ZM7.49991 1.82704C4.36689 1.82704 1.82708 4.36686 1.82708 7.49988C1.82708 10.6329 4.36689 13.1727 7.49991 13.1727C10.6329 13.1727 13.1727 10.6329 13.1727 7.49988C13.1727 4.36686 10.6329 1.82704 7.49991 1.82704Z"
    fill="currentColor"
  ></path>
</symbol>
<symbol viewBox="0 0 15 15" fill="none" id="shadow">
  <path     opacity=".05"
    fill-rule="evenodd"
    clip-rule="evenodd"
    d="M6.78296 13.376C8.73904 9.95284 8.73904 5.04719 6.78296 1.62405L7.21708 1.37598C9.261 4.95283 9.261 10.0472 7.21708 13.624L6.78296 13.376Z"
    fill="currentColor"
  ></path>
  <path     opacity=".1"
    fill-rule="evenodd"
    clip-rule="evenodd"
    d="M7.28204 13.4775C9.23929 9.99523 9.23929 5.00475 7.28204 1.52248L7.71791 1.2775C9.76067 4.9119 9.76067 10.0881 7.71791 13.7225L7.28204 13.4775Z"
    fill="currentColor"
  ></path>
  <path     opacity=".15"
    fill-rule="evenodd"
    clip-rule="evenodd"
    d="M7.82098 13.5064C9.72502 9.99523 9.72636 5.01411 7.82492 1.50084L8.26465 1.26285C10.2465 4.92466 10.2451 10.085 8.26052 13.7448L7.82098 13.5064Z"
    fill="currentColor"
  ></path>
  <path     opacity=".2"
    fill-rule="evenodd"
    clip-rule="evenodd"
    d="M8.41284 13.429C10.1952 9.92842 10.1957 5.07537 8.41435 1.57402L8.85999 1.34729C10.7139 4.99113 10.7133 10.0128 8.85841 13.6559L8.41284 13.429Z"
    fill="currentColor"
  ></path>
  <path     opacity=".25"
    fill-rule="evenodd"
    clip-rule="evenodd"
    d="M9.02441 13.2956C10.6567 9.8379 10.6586 5.17715 9.03005 1.71656L9.48245 1.50366C11.1745 5.09919 11.1726 9.91629 9.47657 13.5091L9.02441 13.2956Z"
    fill="currentColor"
  ></path>
  <path     opacity=".3"
    fill-rule="evenodd"
    clip-rule="evenodd"
    d="M9.66809 13.0655C11.1097 9.69572 11.1107 5.3121 9.67088 1.94095L10.1307 1.74457C11.6241 5.24121 11.6231 9.76683 10.1278 13.2622L9.66809 13.0655Z"
    fill="currentColor"
  ></path>
  <path     opacity=".35"
    fill-rule="evenodd"
    clip-rule="evenodd"
    d="M10.331 12.7456C11.5551 9.52073 11.5564 5.49103 10.3347 2.26444L10.8024 2.0874C12.0672 5.42815 12.0659 9.58394 10.7985 12.9231L10.331 12.7456Z"
    fill="currentColor"
  ></path>
  <path     opacity=".4"
    fill-rule="evenodd"
    clip-rule="evenodd"
    d="M11.0155 12.2986C11.9938 9.29744 11.9948 5.71296 11.0184 2.71067L11.4939 2.55603C12.503 5.6589 12.502 9.35178 11.4909 12.4535L11.0155 12.2986Z"
    fill="currentColor"
  ></path>
  <path     opacity=".45"
    fill-rule="evenodd"
    clip-rule="evenodd"
    d="M11.7214 11.668C12.4254 9.01303 12.4262 5.99691 11.7237 3.34116L12.2071 3.21329C12.9318 5.95292 12.931 9.05728 12.2047 11.7961L11.7214 11.668Z"
    fill="currentColor"
  ></path>
  <path     opacity=".5"
    fill-rule="evenodd"
    clip-rule="evenodd"
    d="M12.4432 10.752C12.8524 8.63762 12.8523 6.36089 12.4429 4.2466L12.9338 4.15155C13.3553 6.32861 13.3554 8.66985 12.9341 10.847L12.4432 10.752Z"
    fill="currentColor"
  ></path>
  <path     fill-rule="evenodd"
    clip-rule="evenodd"
    d="M0.877075 7.49988C0.877075 3.84219 3.84222 0.877045 7.49991 0.877045C11.1576 0.877045 14.1227 3.84219 14.1227 7.49988C14.1227 11.1575 11.1576 14.1227 7.49991 14.1227C3.84222 14.1227 0.877075 11.1575 0.877075 7.49988ZM7.49991 1.82704C4.36689 1.82704 1.82708 4.36686 1.82708 7.49988C1.82708 10.6329 4.36689 13.1727 7.49991 13.1727C10.6329 13.1727 13.1727 10.6329 13.1727 7.49988C13.1727 4.36686 10.6329 1.82704 7.49991 1.82704Z"
    fill="currentColor"
  ></path>
</symbol>
<symbol viewBox="0 0 15 15" fill="none" id="share-1">
  <path     fill-rule="evenodd"
    clip-rule="evenodd"
    d="M5 7.50003C5 8.32845 4.32843 9.00003 3.5 9.00003C2.67157 9.00003 2 8.32845 2 7.50003C2 6.6716 2.67157 6.00003 3.5 6.00003C4.32843 6.00003 5 6.6716 5 7.50003ZM5.71313 8.66388C5.29445 9.45838 4.46048 10 3.5 10C2.11929 10 1 8.88074 1 7.50003C1 6.11931 2.11929 5.00003 3.5 5.00003C4.46048 5.00003 5.29445 5.54167 5.71313 6.33616L9.10424 4.21671C9.03643 3.98968 9 3.74911 9 3.50003C9 2.11932 10.1193 1.00003 11.5 1.00003C12.8807 1.00003 14 2.11932 14 3.50003C14 4.88074 12.8807 6.00003 11.5 6.00003C10.6915 6.00003 9.97264 5.61624 9.51566 5.0209L5.9853 7.22738C5.99502 7.31692 6 7.40789 6 7.50003C6 7.59216 5.99502 7.68312 5.9853 7.77267L9.51567 9.97915C9.97265 9.38382 10.6915 9.00003 11.5 9.00003C12.8807 9.00003 14 10.1193 14 11.5C14 12.8807 12.8807 14 11.5 14C10.1193 14 9 12.8807 9 11.5C9 11.2509 9.03643 11.0104 9.10425 10.7833L5.71313 8.66388ZM11.5 5.00003C12.3284 5.00003 13 4.32846 13 3.50003C13 2.6716 12.3284 2.00003 11.5 2.00003C10.6716 2.00003 10 2.6716 10 3.50003C10 4.32846 10.6716 5.00003 11.5 5.00003ZM13 11.5C13 12.3285 12.3284 13 11.5 13C10.6716 13 10 12.3285 10 11.5C10 10.6716 10.6716 10 11.5 10C12.3284 10 13 10.6716 13 11.5Z"
    fill="currentColor"
  ></path>
</symbol>
<symbol viewBox="0 0 15 15" fill="none" id="stack">
  <path     fill-rule="evenodd"
    clip-rule="evenodd"
    d="M7.75432 1.81954C7.59742 1.72682 7.4025 1.72682 7.24559 1.81954L1.74559 5.06954C1.59336 5.15949 1.49996 5.32317 1.49996 5.5C1.49996 5.67683 1.59336 5.84051 1.74559 5.93046L7.24559 9.18046C7.4025 9.27318 7.59742 9.27318 7.75432 9.18046L13.2543 5.93046C13.4066 5.84051 13.5 5.67683 13.5 5.5C13.5 5.32317 13.4066 5.15949 13.2543 5.06954L7.75432 1.81954ZM7.49996 8.16923L2.9828 5.5L7.49996 2.83077L12.0171 5.5L7.49996 8.16923ZM2.25432 8.31954C2.01658 8.17906 1.70998 8.2579 1.56949 8.49564C1.42901 8.73337 1.50785 9.03998 1.74559 9.18046L7.24559 12.4305C7.4025 12.5232 7.59742 12.5232 7.75432 12.4305L13.2543 9.18046C13.4921 9.03998 13.5709 8.73337 13.4304 8.49564C13.2899 8.2579 12.9833 8.17906 12.7456 8.31954L7.49996 11.4192L2.25432 8.31954Z"
    fill="currentColor"
  ></path>
</symbol>
<symbol viewBox="0 0 15 15" fill="none" id="sun">
  <path     fill-rule="evenodd"
    clip-rule="evenodd"
    d="M7.5 0C7.77614 0 8 0.223858 8 0.5V2.5C8 2.77614 7.77614 3 7.5 3C7.22386 3 7 2.77614 7 2.5V0.5C7 0.223858 7.22386 0 7.5 0ZM2.1967 2.1967C2.39196 2.00144 2.70854 2.00144 2.90381 2.1967L4.31802 3.61091C4.51328 3.80617 4.51328 4.12276 4.31802 4.31802C4.12276 4.51328 3.80617 4.51328 3.61091 4.31802L2.1967 2.90381C2.00144 2.70854 2.00144 2.39196 2.1967 2.1967ZM0.5 7C0.223858 7 0 7.22386 0 7.5C0 7.77614 0.223858 8 0.5 8H2.5C2.77614 8 3 7.77614 3 7.5C3 7.22386 2.77614 7 2.5 7H0.5ZM2.1967 12.8033C2.00144 12.608 2.00144 12.2915 2.1967 12.0962L3.61091 10.682C3.80617 10.4867 4.12276 10.4867 4.31802 10.682C4.51328 10.8772 4.51328 11.1938 4.31802 11.3891L2.90381 12.8033C2.70854 12.9986 2.39196 12.9986 2.1967 12.8033ZM12.5 7C12.2239 7 12 7.22386 12 7.5C12 7.77614 12.2239 8 12.5 8H14.5C14.7761 8 15 7.77614 15 7.5C15 7.22386 14.7761 7 14.5 7H12.5ZM10.682 4.31802C10.4867 4.12276 10.4867 3.80617 10.682 3.61091L12.0962 2.1967C12.2915 2.00144 12.608 2.00144 12.8033 2.1967C12.9986 2.39196 12.9986 2.70854 12.8033 2.90381L11.3891 4.31802C11.1938 4.51328 10.8772 4.51328 10.682 4.31802ZM8 12.5C8 12.2239 7.77614 12 7.5 12C7.22386 12 7 12.2239 7 12.5V14.5C7 14.7761 7.22386 15 7.5 15C7.77614 15 8 14.7761 8 14.5V12.5ZM10.682 10.682C10.8772 10.4867 11.1938 10.4867 11.3891 10.682L12.8033 12.0962C12.9986 12.2915 12.9986 12.608 12.8033 12.8033C12.608 12.9986 12.2915 12.9986 12.0962 12.8033L10.682 11.3891C10.4867 11.1938 10.4867 10.8772 10.682 10.682ZM5.5 7.5C5.5 6.39543 6.39543 5.5 7.5 5.5C8.60457 5.5 9.5 6.39543 9.5 7.5C9.5 8.60457 8.60457 9.5 7.5 9.5C6.39543 9.5 5.5 8.60457 5.5 7.5ZM7.5 4.5C5.84315 4.5 4.5 5.84315 4.5 7.5C4.5 9.15685 5.84315 10.5 7.5 10.5C9.15685 10.5 10.5 9.15685 10.5 7.5C10.5 5.84315 9.15685 4.5 7.5 4.5Z"
    fill="currentColor"
  ></path>
</symbol>
<symbol viewBox="0 0 15 15" fill="none" id="symbol">
  <path     fill-rule="evenodd"
    clip-rule="evenodd"
    d="M1.90321 7.29677C1.90321 10.341 4.11041 12.4147 6.58893 12.8439C6.87255 12.893 7.06266 13.1627 7.01355 13.4464C6.96444 13.73 6.69471 13.9201 6.41109 13.871C3.49942 13.3668 0.86084 10.9127 0.86084 7.29677C0.860839 5.76009 1.55996 4.55245 2.37639 3.63377C2.96124 2.97568 3.63034 2.44135 4.16846 2.03202L2.53205 2.03202C2.25591 2.03202 2.03205 1.80816 2.03205 1.53202C2.03205 1.25588 2.25591 1.03202 2.53205 1.03202L5.53205 1.03202C5.80819 1.03202 6.03205 1.25588 6.03205 1.53202L6.03205 4.53202C6.03205 4.80816 5.80819 5.03202 5.53205 5.03202C5.25591 5.03202 5.03205 4.80816 5.03205 4.53202L5.03205 2.68645L5.03054 2.68759L5.03045 2.68766L5.03044 2.68767L5.03043 2.68767C4.45896 3.11868 3.76059 3.64538 3.15554 4.3262C2.44102 5.13021 1.90321 6.10154 1.90321 7.29677ZM13.0109 7.70321C13.0109 4.69115 10.8505 2.6296 8.40384 2.17029C8.12093 2.11718 7.93465 1.84479 7.98776 1.56188C8.04087 1.27898 8.31326 1.0927 8.59616 1.14581C11.4704 1.68541 14.0532 4.12605 14.0532 7.70321C14.0532 9.23988 13.3541 10.4475 12.5377 11.3662C11.9528 12.0243 11.2837 12.5586 10.7456 12.968L12.3821 12.968C12.6582 12.968 12.8821 13.1918 12.8821 13.468C12.8821 13.7441 12.6582 13.968 12.3821 13.968L9.38205 13.968C9.10591 13.968 8.88205 13.7441 8.88205 13.468L8.88205 10.468C8.88205 10.1918 9.10591 9.96796 9.38205 9.96796C9.65819 9.96796 9.88205 10.1918 9.88205 10.468L9.88205 12.3135L9.88362 12.3123C10.4551 11.8813 11.1535 11.3546 11.7585 10.6738C12.4731 9.86976 13.0109 8.89844 13.0109 7.70321Z"
    fill="currentColor"
  ></path>
</symbol>
<symbol viewBox="0 0 15 15" fill="none" id="timer">
  <path     fill-rule="evenodd"
    clip-rule="evenodd"
    d="M7.49998 0.849976C7.22383 0.849976 6.99998 1.07383 6.99998 1.34998V3.52234C6.99998 3.79848 7.22383 4.02234 7.49998 4.02234C7.77612 4.02234 7.99998 3.79848 7.99998 3.52234V1.8718C10.8862 2.12488 13.15 4.54806 13.15 7.49998C13.15 10.6204 10.6204 13.15 7.49998 13.15C4.37957 13.15 1.84998 10.6204 1.84998 7.49998C1.84998 6.10612 2.35407 4.83128 3.19049 3.8459C3.36919 3.63538 3.34339 3.31985 3.13286 3.14115C2.92234 2.96245 2.60681 2.98825 2.42811 3.19877C1.44405 4.35808 0.849976 5.86029 0.849976 7.49998C0.849976 11.1727 3.82728 14.15 7.49998 14.15C11.1727 14.15 14.15 11.1727 14.15 7.49998C14.15 3.82728 11.1727 0.849976 7.49998 0.849976ZM6.74049 8.08072L4.22363 4.57237C4.15231 4.47295 4.16346 4.33652 4.24998 4.25C4.33649 4.16348 4.47293 4.15233 4.57234 4.22365L8.08069 6.74051C8.56227 7.08599 8.61906 7.78091 8.19998 8.2C7.78089 8.61909 7.08597 8.56229 6.74049 8.08072Z"
    fill="currentColor"
  ></path>
</symbol>
<symbol viewBox="0 0 15 15" fill="none" id="tokens">
  <path     fill-rule="evenodd"
    clip-rule="evenodd"
    d="M4.5 2C3.11929 2 2 3.11929 2 4.5C2 5.88072 3.11929 7 4.5 7C5.88072 7 7 5.88072 7 4.5C7 3.11929 5.88072 2 4.5 2ZM3 4.5C3 3.67157 3.67157 3 4.5 3C5.32843 3 6 3.67157 6 4.5C6 5.32843 5.32843 6 4.5 6C3.67157 6 3 5.32843 3 4.5ZM10.5 2C9.11929 2 8 3.11929 8 4.5C8 5.88072 9.11929 7 10.5 7C11.8807 7 13 5.88072 13 4.5C13 3.11929 11.8807 2 10.5 2ZM9 4.5C9 3.67157 9.67157 3 10.5 3C11.3284 3 12 3.67157 12 4.5C12 5.32843 11.3284 6 10.5 6C9.67157 6 9 5.32843 9 4.5ZM2 10.5C2 9.11929 3.11929 8 4.5 8C5.88072 8 7 9.11929 7 10.5C7 11.8807 5.88072 13 4.5 13C3.11929 13 2 11.8807 2 10.5ZM4.5 9C3.67157 9 3 9.67157 3 10.5C3 11.3284 3.67157 12 4.5 12C5.32843 12 6 11.3284 6 10.5C6 9.67157 5.32843 9 4.5 9ZM10.5 8C9.11929 8 8 9.11929 8 10.5C8 11.8807 9.11929 13 10.5 13C11.8807 13 13 11.8807 13 10.5C13 9.11929 11.8807 8 10.5 8ZM9 10.5C9 9.67157 9.67157 9 10.5 9C11.3284 9 12 9.67157 12 10.5C12 11.3284 11.3284 12 10.5 12C9.67157 12 9 11.3284 9 10.5Z"
    fill="currentColor"
  ></path>
</symbol>
<symbol viewBox="0 0 15 15" fill="none" id="trash">
  <path     fill-rule="evenodd"
    clip-rule="evenodd"
    d="M5.5 1C5.22386 1 5 1.22386 5 1.5C5 1.77614 5.22386 2 5.5 2H9.5C9.77614 2 10 1.77614 10 1.5C10 1.22386 9.77614 1 9.5 1H5.5ZM3 3.5C3 3.22386 3.22386 3 3.5 3H5H10H11.5C11.7761 3 12 3.22386 12 3.5C12 3.77614 11.7761 4 11.5 4H11V12C11 12.5523 10.5523 13 10 13H5C4.44772 13 4 12.5523 4 12V4L3.5 4C3.22386 4 3 3.77614 3 3.5ZM5 4H10V12H5V4Z"
    fill="currentColor"
  ></path>
</symbol>
<symbol viewBox="0 0 15 15" fill="none" id="update">
  <path     fill-rule="evenodd"
    clip-rule="evenodd"
    d="M1.90321 7.29677C1.90321 10.341 4.11041 12.4147 6.58893 12.8439C6.87255 12.893 7.06266 13.1627 7.01355 13.4464C6.96444 13.73 6.69471 13.9201 6.41109 13.871C3.49942 13.3668 0.86084 10.9127 0.86084 7.29677C0.860839 5.76009 1.55996 4.55245 2.37639 3.63377C2.96124 2.97568 3.63034 2.44135 4.16846 2.03202L2.53205 2.03202C2.25591 2.03202 2.03205 1.80816 2.03205 1.53202C2.03205 1.25588 2.25591 1.03202 2.53205 1.03202L5.53205 1.03202C5.80819 1.03202 6.03205 1.25588 6.03205 1.53202L6.03205 4.53202C6.03205 4.80816 5.80819 5.03202 5.53205 5.03202C5.25591 5.03202 5.03205 4.80816 5.03205 4.53202L5.03205 2.68645L5.03054 2.68759L5.03045 2.68766L5.03044 2.68767L5.03043 2.68767C4.45896 3.11868 3.76059 3.64538 3.15554 4.3262C2.44102 5.13021 1.90321 6.10154 1.90321 7.29677ZM13.0109 7.70321C13.0109 4.69115 10.8505 2.6296 8.40384 2.17029C8.12093 2.11718 7.93465 1.84479 7.98776 1.56188C8.04087 1.27898 8.31326 1.0927 8.59616 1.14581C11.4704 1.68541 14.0532 4.12605 14.0532 7.70321C14.0532 9.23988 13.3541 10.4475 12.5377 11.3662C11.9528 12.0243 11.2837 12.5586 10.7456 12.968L12.3821 12.968C12.6582 12.968 12.8821 13.1918 12.8821 13.468C12.8821 13.7441 12.6582 13.968 12.3821 13.968L9.38205 13.968C9.10591 13.968 8.88205 13.7441 8.88205 13.468L8.88205 10.468C8.88205 10.1918 9.10591 9.96796 9.38205 9.96796C9.65819 9.96796 9.88205 10.1918 9.88205 10.468L9.88205 12.3135L9.88362 12.3123C10.4551 11.8813 11.1535 11.3546 11.7585 10.6738C12.4731 9.86976 13.0109 8.89844 13.0109 7.70321Z"
    fill="currentColor"
  ></path>
</symbol>
<symbol viewBox="0 0 15 15" fill="none" id="upload">
  <path     fill-rule="evenodd"
    clip-rule="evenodd"
    d="M7.81825 1.18188C7.64251 1.00615 7.35759 1.00615 7.18185 1.18188L4.18185 4.18188C4.00611 4.35762 4.00611 4.64254 4.18185 4.81828C4.35759 4.99401 4.64251 4.99401 4.81825 4.81828L7.05005 2.58648V9.49996C7.05005 9.74849 7.25152 9.94996 7.50005 9.94996C7.74858 9.94996 7.95005 9.74849 7.95005 9.49996V2.58648L10.1819 4.81828C10.3576 4.99401 10.6425 4.99401 10.8182 4.81828C10.994 4.64254 10.994 4.35762 10.8182 4.18188L7.81825 1.18188ZM2.5 9.99997C2.77614 9.99997 3 10.2238 3 10.5V12C3 12.5538 3.44565 13 3.99635 13H11.0012C11.5529 13 12 12.5528 12 12V10.5C12 10.2238 12.2239 9.99997 12.5 9.99997C12.7761 9.99997 13 10.2238 13 10.5V12C13 13.104 12.1062 14 11.0012 14H3.99635C2.89019 14 2 13.103 2 12V10.5C2 10.2238 2.22386 9.99997 2.5 9.99997Z"
    fill="currentColor"
  ></path>
</symbol>
<symbol viewBox="0 0 15 15" fill="none" id="value-none">
  <path     fill-rule="evenodd"
    clip-rule="evenodd"
    d="M7.49985 0.877045C3.84216 0.877045 0.877014 3.84219 0.877014 7.49988C0.877014 9.1488 1.47963 10.657 2.47665 11.8162L1.64643 12.6464C1.45117 12.8417 1.45117 13.1583 1.64643 13.3535C1.8417 13.5488 2.15828 13.5488 2.35354 13.3535L3.18377 12.5233C4.34296 13.5202 5.85104 14.1227 7.49985 14.1227C11.1575 14.1227 14.1227 11.1575 14.1227 7.49988C14.1227 5.85107 13.5202 4.34299 12.5233 3.1838L13.3535 2.35354C13.5488 2.15827 13.5488 1.84169 13.3535 1.64643C13.1583 1.45117 12.8417 1.45117 12.6464 1.64643L11.8162 2.47668C10.657 1.47966 9.14877 0.877045 7.49985 0.877045ZM11.1422 3.15066C10.1567 2.32449 8.88639 1.82704 7.49985 1.82704C4.36683 1.82704 1.82701 4.36686 1.82701 7.49988C1.82701 8.88642 2.32446 10.1568 3.15063 11.1422L11.1422 3.15066ZM3.85776 11.8493C4.84317 12.6753 6.11343 13.1727 7.49985 13.1727C10.6328 13.1727 13.1727 10.6329 13.1727 7.49988C13.1727 6.11346 12.6753 4.8432 11.8493 3.85779L3.85776 11.8493Z"
    fill="currentColor"
  ></path>
</symbol>
</defs>
</svg>
